<svg width="367" height="96" viewBox="0 0 367 96" fill="none" xmlns="http://www.w3.org/2000/svg">
<path d="M13.8086 57.5625V86H10.0977V57.5625H13.8086ZM22.9492 57.5625V60.6484H0.976562V57.5625H22.9492ZM23.7109 75.668V75.2188C23.7109 73.6953 23.9323 72.2826 24.375 70.9805C24.8177 69.6654 25.4557 68.526 26.2891 67.5625C27.1224 66.5859 28.1315 65.8307 29.3164 65.2969C30.5013 64.75 31.8294 64.4766 33.3008 64.4766C34.7852 64.4766 36.1198 64.75 37.3047 65.2969C38.5026 65.8307 39.5182 66.5859 40.3516 67.5625C41.1979 68.526 41.8424 69.6654 42.2852 70.9805C42.7279 72.2826 42.9492 73.6953 42.9492 75.2188V75.668C42.9492 77.1914 42.7279 78.6042 42.2852 79.9062C41.8424 81.2083 41.1979 82.3477 40.3516 83.3242C39.5182 84.2878 38.5091 85.043 37.3242 85.5898C36.1523 86.1237 34.8242 86.3906 33.3398 86.3906C31.8555 86.3906 30.5208 86.1237 29.3359 85.5898C28.151 85.043 27.1354 84.2878 26.2891 83.3242C25.4557 82.3477 24.8177 81.2083 24.375 79.9062C23.9323 78.6042 23.7109 77.1914 23.7109 75.668ZM27.3242 75.2188V75.668C27.3242 76.7227 27.4479 77.7188 27.6953 78.6562C27.9427 79.5807 28.3138 80.401 28.8086 81.1172C29.3164 81.8333 29.9479 82.3997 30.7031 82.8164C31.4583 83.2201 32.3372 83.4219 33.3398 83.4219C34.3294 83.4219 35.1953 83.2201 35.9375 82.8164C36.6927 82.3997 37.3177 81.8333 37.8125 81.1172C38.3073 80.401 38.6784 79.5807 38.9258 78.6562C39.1862 77.7188 39.3164 76.7227 39.3164 75.668V75.2188C39.3164 74.1771 39.1862 73.194 38.9258 72.2695C38.6784 71.332 38.3008 70.5052 37.793 69.7891C37.2982 69.0599 36.6732 68.487 35.918 68.0703C35.1758 67.6536 34.3034 67.4453 33.3008 67.4453C32.3112 67.4453 31.4388 67.6536 30.6836 68.0703C29.9414 68.487 29.3164 69.0599 28.8086 69.7891C28.3138 70.5052 27.9427 71.332 27.6953 72.2695C27.4479 73.194 27.3242 74.1771 27.3242 75.2188ZM60.8008 81.8984V56H64.4336V86H61.1133L60.8008 81.8984ZM46.582 75.668V75.2578C46.582 73.6432 46.7773 72.1784 47.168 70.8633C47.5716 69.5352 48.138 68.3958 48.8672 67.4453C49.6094 66.4948 50.4883 65.7656 51.5039 65.2578C52.5326 64.737 53.6784 64.4766 54.9414 64.4766C56.2695 64.4766 57.4284 64.7109 58.418 65.1797C59.4206 65.6354 60.2669 66.306 60.957 67.1914C61.6602 68.0638 62.2135 69.1185 62.6172 70.3555C63.0208 71.5924 63.3008 72.9922 63.457 74.5547V76.3516C63.3138 77.901 63.0339 79.2943 62.6172 80.5312C62.2135 81.7682 61.6602 82.8229 60.957 83.6953C60.2669 84.5677 59.4206 85.2383 58.418 85.707C57.4154 86.1628 56.2435 86.3906 54.9023 86.3906C53.6654 86.3906 52.5326 86.1237 51.5039 85.5898C50.4883 85.056 49.6094 84.3073 48.8672 83.3438C48.138 82.3802 47.5716 81.2474 47.168 79.9453C46.7773 78.6302 46.582 77.2044 46.582 75.668ZM50.2148 75.2578V75.668C50.2148 76.7227 50.319 77.7122 50.5273 78.6367C50.7487 79.5612 51.0872 80.375 51.543 81.0781C51.9987 81.7812 52.5781 82.3346 53.2812 82.7383C53.9844 83.1289 54.8242 83.3242 55.8008 83.3242C56.9987 83.3242 57.9818 83.0703 58.75 82.5625C59.5312 82.0547 60.1562 81.3841 60.625 80.5508C61.0938 79.7174 61.4583 78.8125 61.7188 77.8359V73.1289C61.5625 72.4128 61.3346 71.7227 61.0352 71.0586C60.7487 70.3815 60.3711 69.7826 59.9023 69.2617C59.4466 68.7279 58.8802 68.3047 58.2031 67.9922C57.5391 67.6797 56.7513 67.5234 55.8398 67.5234C54.8503 67.5234 53.9974 67.7318 53.2812 68.1484C52.5781 68.5521 51.9987 69.112 51.543 69.8281C51.0872 70.5312 50.7487 71.3516 50.5273 72.2891C50.319 73.2135 50.2148 74.2031 50.2148 75.2578ZM82.5195 82.3867V71.5078C82.5195 70.6745 82.3503 69.9518 82.0117 69.3398C81.6862 68.7148 81.1914 68.2331 80.5273 67.8945C79.8633 67.556 79.043 67.3867 78.0664 67.3867C77.1549 67.3867 76.3542 67.543 75.6641 67.8555C74.987 68.168 74.4531 68.5781 74.0625 69.0859C73.6849 69.5938 73.4961 70.1406 73.4961 70.7266H69.8828C69.8828 69.9714 70.0781 69.2227 70.4688 68.4805C70.8594 67.7383 71.4193 67.0677 72.1484 66.4688C72.8906 65.8568 73.776 65.375 74.8047 65.0234C75.8464 64.6589 77.0052 64.4766 78.2812 64.4766C79.8177 64.4766 81.1719 64.737 82.3438 65.2578C83.5286 65.7786 84.4531 66.5664 85.1172 67.6211C85.7943 68.6628 86.1328 69.9714 86.1328 71.5469V81.3906C86.1328 82.0938 86.1914 82.8424 86.3086 83.6367C86.4388 84.431 86.6276 85.1146 86.875 85.6875V86H83.1055C82.9232 85.5833 82.7799 85.0299 82.6758 84.3398C82.5716 83.6367 82.5195 82.9857 82.5195 82.3867ZM83.1445 73.1875L83.1836 75.7266H79.5312C78.5026 75.7266 77.5846 75.8112 76.7773 75.9805C75.9701 76.1367 75.293 76.3776 74.7461 76.7031C74.1992 77.0286 73.7826 77.4388 73.4961 77.9336C73.2096 78.4154 73.0664 78.9818 73.0664 79.6328C73.0664 80.2969 73.2161 80.9023 73.5156 81.4492C73.8151 81.9961 74.2643 82.4323 74.8633 82.7578C75.4753 83.0703 76.224 83.2266 77.1094 83.2266C78.2161 83.2266 79.1927 82.9922 80.0391 82.5234C80.8854 82.0547 81.556 81.4818 82.0508 80.8047C82.5586 80.1276 82.832 79.4701 82.8711 78.832L84.4141 80.5703C84.3229 81.1172 84.0755 81.7227 83.6719 82.3867C83.2682 83.0508 82.7279 83.6888 82.0508 84.3008C81.3867 84.8997 80.5924 85.401 79.668 85.8047C78.7565 86.1953 77.7279 86.3906 76.582 86.3906C75.1497 86.3906 73.8932 86.1107 72.8125 85.5508C71.7448 84.9909 70.9115 84.2422 70.3125 83.3047C69.7266 82.3542 69.4336 81.293 69.4336 80.1211C69.4336 78.9883 69.6549 77.9922 70.0977 77.1328C70.5404 76.2604 71.1784 75.5378 72.0117 74.9648C72.8451 74.3789 73.8477 73.9362 75.0195 73.6367C76.1914 73.3372 77.5 73.1875 78.9453 73.1875H83.1445ZM97.4414 83.8125L103.32 64.8672H107.188L98.7109 89.2617C98.5156 89.7826 98.2552 90.3424 97.9297 90.9414C97.6172 91.5534 97.2135 92.1328 96.7188 92.6797C96.224 93.2266 95.625 93.6693 94.9219 94.0078C94.2318 94.3594 93.4049 94.5352 92.4414 94.5352C92.1549 94.5352 91.7904 94.4961 91.3477 94.418C90.9049 94.3398 90.5924 94.2747 90.4102 94.2227L90.3906 91.293C90.4948 91.306 90.6576 91.319 90.8789 91.332C91.1133 91.3581 91.276 91.3711 91.3672 91.3711C92.1875 91.3711 92.8841 91.2604 93.457 91.0391C94.0299 90.8307 94.5117 90.4727 94.9023 89.9648C95.306 89.4701 95.651 88.7865 95.9375 87.9141L97.4414 83.8125ZM93.125 64.8672L98.6133 81.2734L99.5508 85.082L96.9531 86.4102L89.1797 64.8672H93.125ZM131.855 57.4062V86H128.242V61.918L120.957 64.5742V61.3125L131.289 57.4062H131.855ZM147.051 72.4648L144.16 71.7227L145.586 57.5625H160.176V60.9023H148.652L147.793 68.6367C148.314 68.3372 148.971 68.0573 149.766 67.7969C150.573 67.5365 151.497 67.4062 152.539 67.4062C153.854 67.4062 155.033 67.6341 156.074 68.0898C157.116 68.5326 158.001 69.1706 158.73 70.0039C159.473 70.8372 160.039 71.8398 160.43 73.0117C160.82 74.1836 161.016 75.4922 161.016 76.9375C161.016 78.3047 160.827 79.5612 160.449 80.707C160.085 81.8529 159.531 82.8555 158.789 83.7148C158.047 84.5612 157.109 85.2188 155.977 85.6875C154.857 86.1562 153.535 86.3906 152.012 86.3906C150.866 86.3906 149.779 86.2344 148.75 85.9219C147.734 85.5964 146.823 85.1081 146.016 84.457C145.221 83.793 144.57 82.9727 144.062 81.9961C143.568 81.0065 143.255 79.8477 143.125 78.5195H146.562C146.719 79.5872 147.031 80.4857 147.5 81.2148C147.969 81.944 148.581 82.4974 149.336 82.875C150.104 83.2396 150.996 83.4219 152.012 83.4219C152.871 83.4219 153.633 83.2721 154.297 82.9727C154.961 82.6732 155.521 82.2435 155.977 81.6836C156.432 81.1237 156.777 80.4466 157.012 79.6523C157.259 78.8581 157.383 77.9661 157.383 76.9766C157.383 76.0781 157.259 75.2448 157.012 74.4766C156.764 73.7083 156.393 73.0378 155.898 72.4648C155.417 71.8919 154.824 71.4492 154.121 71.1367C153.418 70.8112 152.611 70.6484 151.699 70.6484C150.488 70.6484 149.57 70.8112 148.945 71.1367C148.333 71.4622 147.702 71.9049 147.051 72.4648ZM190.996 78.8125C190.996 78.1484 190.892 77.5625 190.684 77.0547C190.488 76.5339 190.137 76.0651 189.629 75.6484C189.134 75.2318 188.444 74.8346 187.559 74.457C186.686 74.0794 185.579 73.6953 184.238 73.3047C182.832 72.888 181.562 72.4258 180.43 71.918C179.297 71.3971 178.327 70.8047 177.52 70.1406C176.712 69.4766 176.094 68.7148 175.664 67.8555C175.234 66.9961 175.02 66.013 175.02 64.9062C175.02 63.7995 175.247 62.7773 175.703 61.8398C176.159 60.9023 176.81 60.0885 177.656 59.3984C178.516 58.6953 179.538 58.1484 180.723 57.7578C181.908 57.3672 183.229 57.1719 184.688 57.1719C186.823 57.1719 188.633 57.582 190.117 58.4023C191.615 59.2096 192.754 60.2708 193.535 61.5859C194.316 62.888 194.707 64.2812 194.707 65.7656H190.957C190.957 64.6979 190.729 63.7539 190.273 62.9336C189.818 62.1003 189.128 61.4492 188.203 60.9805C187.279 60.4987 186.107 60.2578 184.688 60.2578C183.346 60.2578 182.24 60.4596 181.367 60.8633C180.495 61.2669 179.844 61.8138 179.414 62.5039C178.997 63.194 178.789 63.9818 178.789 64.8672C178.789 65.4661 178.913 66.013 179.16 66.5078C179.421 66.9896 179.818 67.4388 180.352 67.8555C180.898 68.2721 181.589 68.6562 182.422 69.0078C183.268 69.3594 184.277 69.6979 185.449 70.0234C187.064 70.4792 188.457 70.987 189.629 71.5469C190.801 72.1068 191.764 72.7383 192.52 73.4414C193.288 74.1315 193.854 74.9193 194.219 75.8047C194.596 76.6771 194.785 77.6667 194.785 78.7734C194.785 79.9323 194.551 80.9805 194.082 81.918C193.613 82.8555 192.943 83.6562 192.07 84.3203C191.198 84.9844 190.15 85.4987 188.926 85.8633C187.715 86.2148 186.361 86.3906 184.863 86.3906C183.548 86.3906 182.253 86.2083 180.977 85.8438C179.714 85.4792 178.561 84.9323 177.52 84.2031C176.491 83.474 175.664 82.5755 175.039 81.5078C174.427 80.4271 174.121 79.1771 174.121 77.7578H177.871C177.871 78.7344 178.06 79.5742 178.438 80.2773C178.815 80.9674 179.329 81.5404 179.98 81.9961C180.645 82.4518 181.393 82.7904 182.227 83.0117C183.073 83.2201 183.952 83.3242 184.863 83.3242C186.178 83.3242 187.292 83.1419 188.203 82.7773C189.115 82.4128 189.805 81.8919 190.273 81.2148C190.755 80.5378 190.996 79.737 190.996 78.8125ZM207.812 86.3906C206.341 86.3906 205.007 86.1432 203.809 85.6484C202.624 85.1406 201.602 84.431 200.742 83.5195C199.896 82.6081 199.245 81.5273 198.789 80.2773C198.333 79.0273 198.105 77.6602 198.105 76.1758V75.3555C198.105 73.6367 198.359 72.1068 198.867 70.7656C199.375 69.4115 200.065 68.2656 200.938 67.3281C201.81 66.3906 202.799 65.681 203.906 65.1992C205.013 64.7174 206.159 64.4766 207.344 64.4766C208.854 64.4766 210.156 64.737 211.25 65.2578C212.357 65.7786 213.262 66.5078 213.965 67.4453C214.668 68.3698 215.189 69.4635 215.527 70.7266C215.866 71.9766 216.035 73.3438 216.035 74.8281V76.4492H200.254V73.5H212.422V73.2266C212.37 72.2891 212.174 71.3776 211.836 70.4922C211.51 69.6068 210.99 68.8776 210.273 68.3047C209.557 67.7318 208.581 67.4453 207.344 67.4453C206.523 67.4453 205.768 67.6211 205.078 67.9727C204.388 68.3112 203.796 68.819 203.301 69.4961C202.806 70.1732 202.422 71 202.148 71.9766C201.875 72.9531 201.738 74.0794 201.738 75.3555V76.1758C201.738 77.1784 201.875 78.1224 202.148 79.0078C202.435 79.8802 202.845 80.6484 203.379 81.3125C203.926 81.9766 204.583 82.4974 205.352 82.875C206.133 83.2526 207.018 83.4414 208.008 83.4414C209.284 83.4414 210.365 83.181 211.25 82.6602C212.135 82.1393 212.91 81.4427 213.574 80.5703L215.762 82.3086C215.306 82.9987 214.727 83.6562 214.023 84.2812C213.32 84.9062 212.454 85.4141 211.426 85.8047C210.41 86.1953 209.206 86.3906 207.812 86.3906ZM223.867 68.9297V94.125H220.234V64.8672H223.555L223.867 68.9297ZM238.105 75.2578V75.668C238.105 77.2044 237.923 78.6302 237.559 79.9453C237.194 81.2474 236.66 82.3802 235.957 83.3438C235.267 84.3073 234.414 85.056 233.398 85.5898C232.383 86.1237 231.217 86.3906 229.902 86.3906C228.561 86.3906 227.376 86.1693 226.348 85.7266C225.319 85.2839 224.447 84.6393 223.73 83.793C223.014 82.9466 222.441 81.931 222.012 80.7461C221.595 79.5612 221.309 78.2266 221.152 76.7422V74.5547C221.309 72.9922 221.602 71.5924 222.031 70.3555C222.461 69.1185 223.027 68.0638 223.73 67.1914C224.447 66.306 225.312 65.6354 226.328 65.1797C227.344 64.7109 228.516 64.4766 229.844 64.4766C231.172 64.4766 232.35 64.737 233.379 65.2578C234.408 65.7656 235.273 66.4948 235.977 67.4453C236.68 68.3958 237.207 69.5352 237.559 70.8633C237.923 72.1784 238.105 73.6432 238.105 75.2578ZM234.473 75.668V75.2578C234.473 74.2031 234.362 73.2135 234.141 72.2891C233.919 71.3516 233.574 70.5312 233.105 69.8281C232.65 69.112 232.064 68.5521 231.348 68.1484C230.632 67.7318 229.779 67.5234 228.789 67.5234C227.878 67.5234 227.083 67.6797 226.406 67.9922C225.742 68.3047 225.176 68.7279 224.707 69.2617C224.238 69.7826 223.854 70.3815 223.555 71.0586C223.268 71.7227 223.053 72.4128 222.91 73.1289V78.1875C223.171 79.099 223.535 79.9583 224.004 80.7656C224.473 81.5599 225.098 82.2044 225.879 82.6992C226.66 83.181 227.643 83.4219 228.828 83.4219C229.805 83.4219 230.645 83.2201 231.348 82.8164C232.064 82.3997 232.65 81.8333 233.105 81.1172C233.574 80.401 233.919 79.5807 234.141 78.6562C234.362 77.7188 234.473 76.7227 234.473 75.668ZM251.562 64.8672V67.6406H240.137V64.8672H251.562ZM244.004 59.7305H247.617V80.7656C247.617 81.4818 247.728 82.0221 247.949 82.3867C248.171 82.7513 248.457 82.9922 248.809 83.1094C249.16 83.2266 249.538 83.2852 249.941 83.2852C250.241 83.2852 250.553 83.2591 250.879 83.207C251.217 83.1419 251.471 83.0898 251.641 83.0508L251.66 86C251.374 86.0911 250.996 86.1758 250.527 86.2539C250.072 86.3451 249.518 86.3906 248.867 86.3906C247.982 86.3906 247.168 86.2148 246.426 85.8633C245.684 85.5117 245.091 84.9258 244.648 84.1055C244.219 83.2721 244.004 82.1523 244.004 80.7461V59.7305ZM264.57 86.3906C263.099 86.3906 261.764 86.1432 260.566 85.6484C259.382 85.1406 258.359 84.431 257.5 83.5195C256.654 82.6081 256.003 81.5273 255.547 80.2773C255.091 79.0273 254.863 77.6602 254.863 76.1758V75.3555C254.863 73.6367 255.117 72.1068 255.625 70.7656C256.133 69.4115 256.823 68.2656 257.695 67.3281C258.568 66.3906 259.557 65.681 260.664 65.1992C261.771 64.7174 262.917 64.4766 264.102 64.4766C265.612 64.4766 266.914 64.737 268.008 65.2578C269.115 65.7786 270.02 66.5078 270.723 67.4453C271.426 68.3698 271.947 69.4635 272.285 70.7266C272.624 71.9766 272.793 73.3438 272.793 74.8281V76.4492H257.012V73.5H269.18V73.2266C269.128 72.2891 268.932 71.3776 268.594 70.4922C268.268 69.6068 267.747 68.8776 267.031 68.3047C266.315 67.7318 265.339 67.4453 264.102 67.4453C263.281 67.4453 262.526 67.6211 261.836 67.9727C261.146 68.3112 260.553 68.819 260.059 69.4961C259.564 70.1732 259.18 71 258.906 71.9766C258.633 72.9531 258.496 74.0794 258.496 75.3555V76.1758C258.496 77.1784 258.633 78.1224 258.906 79.0078C259.193 79.8802 259.603 80.6484 260.137 81.3125C260.684 81.9766 261.341 82.4974 262.109 82.875C262.891 83.2526 263.776 83.4414 264.766 83.4414C266.042 83.4414 267.122 83.181 268.008 82.6602C268.893 82.1393 269.668 81.4427 270.332 80.5703L272.52 82.3086C272.064 82.9987 271.484 83.6562 270.781 84.2812C270.078 84.9062 269.212 85.4141 268.184 85.8047C267.168 86.1953 265.964 86.3906 264.57 86.3906ZM280.605 69.0664V86H276.973V64.8672H280.41L280.605 69.0664ZM279.863 74.6328L278.184 74.5742C278.197 73.1289 278.385 71.7943 278.75 70.5703C279.115 69.3333 279.655 68.2591 280.371 67.3477C281.087 66.4362 281.979 65.7331 283.047 65.2383C284.115 64.7305 285.352 64.4766 286.758 64.4766C287.747 64.4766 288.659 64.6198 289.492 64.9062C290.326 65.1797 291.048 65.6159 291.66 66.2148C292.272 66.8138 292.747 67.582 293.086 68.5195C293.424 69.457 293.594 70.5898 293.594 71.918V86H289.98V72.0938C289.98 70.987 289.792 70.1016 289.414 69.4375C289.049 68.7734 288.529 68.2917 287.852 67.9922C287.174 67.6797 286.38 67.5234 285.469 67.5234C284.401 67.5234 283.509 67.7122 282.793 68.0898C282.077 68.4674 281.504 68.9883 281.074 69.6523C280.645 70.3164 280.332 71.0781 280.137 71.9375C279.954 72.7839 279.863 73.6823 279.863 74.6328ZM293.555 72.6406L291.133 73.3828C291.146 72.224 291.335 71.1107 291.699 70.043C292.077 68.9753 292.617 68.0247 293.32 67.1914C294.036 66.3581 294.915 65.7005 295.957 65.2188C296.999 64.724 298.19 64.4766 299.531 64.4766C300.664 64.4766 301.667 64.6263 302.539 64.9258C303.424 65.2253 304.167 65.6875 304.766 66.3125C305.378 66.9245 305.84 67.7122 306.152 68.6758C306.465 69.6393 306.621 70.7852 306.621 72.1133V86H302.988V72.0742C302.988 70.8893 302.799 69.9714 302.422 69.3203C302.057 68.6562 301.536 68.194 300.859 67.9336C300.195 67.6602 299.401 67.5234 298.477 67.5234C297.682 67.5234 296.979 67.6602 296.367 67.9336C295.755 68.207 295.241 68.5846 294.824 69.0664C294.408 69.5352 294.089 70.0755 293.867 70.6875C293.659 71.2995 293.555 71.9505 293.555 72.6406ZM312.07 56H315.703V81.8984L315.391 86H312.07V56ZM329.98 75.2578V75.668C329.98 77.2044 329.798 78.6302 329.434 79.9453C329.069 81.2474 328.535 82.3802 327.832 83.3438C327.129 84.3073 326.27 85.056 325.254 85.5898C324.238 86.1237 323.073 86.3906 321.758 86.3906C320.417 86.3906 319.238 86.1628 318.223 85.707C317.22 85.2383 316.374 84.5677 315.684 83.6953C314.993 82.8229 314.44 81.7682 314.023 80.5312C313.62 79.2943 313.34 77.901 313.184 76.3516V74.5547C313.34 72.9922 313.62 71.5924 314.023 70.3555C314.44 69.1185 314.993 68.0638 315.684 67.1914C316.374 66.306 317.22 65.6354 318.223 65.1797C319.225 64.7109 320.391 64.4766 321.719 64.4766C323.047 64.4766 324.225 64.737 325.254 65.2578C326.283 65.7656 327.142 66.4948 327.832 67.4453C328.535 68.3958 329.069 69.5352 329.434 70.8633C329.798 72.1784 329.98 73.6432 329.98 75.2578ZM326.348 75.668V75.2578C326.348 74.2031 326.25 73.2135 326.055 72.2891C325.859 71.3516 325.547 70.5312 325.117 69.8281C324.688 69.112 324.121 68.5521 323.418 68.1484C322.715 67.7318 321.849 67.5234 320.82 67.5234C319.909 67.5234 319.115 67.6797 318.438 67.9922C317.773 68.3047 317.207 68.7279 316.738 69.2617C316.27 69.7826 315.885 70.3815 315.586 71.0586C315.299 71.7227 315.085 72.4128 314.941 73.1289V77.8359C315.15 78.7474 315.488 79.6263 315.957 80.4727C316.439 81.306 317.077 81.9896 317.871 82.5234C318.678 83.0573 319.674 83.3242 320.859 83.3242C321.836 83.3242 322.669 83.1289 323.359 82.7383C324.062 82.3346 324.629 81.7812 325.059 81.0781C325.501 80.375 325.827 79.5612 326.035 78.6367C326.243 77.7122 326.348 76.7227 326.348 75.668ZM343.32 86.3906C341.849 86.3906 340.514 86.1432 339.316 85.6484C338.132 85.1406 337.109 84.431 336.25 83.5195C335.404 82.6081 334.753 81.5273 334.297 80.2773C333.841 79.0273 333.613 77.6602 333.613 76.1758V75.3555C333.613 73.6367 333.867 72.1068 334.375 70.7656C334.883 69.4115 335.573 68.2656 336.445 67.3281C337.318 66.3906 338.307 65.681 339.414 65.1992C340.521 64.7174 341.667 64.4766 342.852 64.4766C344.362 64.4766 345.664 64.737 346.758 65.2578C347.865 65.7786 348.77 66.5078 349.473 67.4453C350.176 68.3698 350.697 69.4635 351.035 70.7266C351.374 71.9766 351.543 73.3438 351.543 74.8281V76.4492H335.762V73.5H347.93V73.2266C347.878 72.2891 347.682 71.3776 347.344 70.4922C347.018 69.6068 346.497 68.8776 345.781 68.3047C345.065 67.7318 344.089 67.4453 342.852 67.4453C342.031 67.4453 341.276 67.6211 340.586 67.9727C339.896 68.3112 339.303 68.819 338.809 69.4961C338.314 70.1732 337.93 71 337.656 71.9766C337.383 72.9531 337.246 74.0794 337.246 75.3555V76.1758C337.246 77.1784 337.383 78.1224 337.656 79.0078C337.943 79.8802 338.353 80.6484 338.887 81.3125C339.434 81.9766 340.091 82.4974 340.859 82.875C341.641 83.2526 342.526 83.4414 343.516 83.4414C344.792 83.4414 345.872 83.181 346.758 82.6602C347.643 82.1393 348.418 81.4427 349.082 80.5703L351.27 82.3086C350.814 82.9987 350.234 83.6562 349.531 84.2812C348.828 84.9062 347.962 85.4141 346.934 85.8047C345.918 86.1953 344.714 86.3906 343.32 86.3906ZM359.375 68.1875V86H355.762V64.8672H359.277L359.375 68.1875ZM365.977 64.75L365.957 68.1094C365.658 68.0443 365.371 68.0052 365.098 67.9922C364.837 67.9661 364.538 67.9531 364.199 67.9531C363.366 67.9531 362.63 68.0833 361.992 68.3438C361.354 68.6042 360.814 68.9688 360.371 69.4375C359.928 69.9062 359.577 70.4661 359.316 71.1172C359.069 71.7552 358.906 72.4583 358.828 73.2266L357.812 73.8125C357.812 72.5365 357.936 71.3385 358.184 70.2188C358.444 69.099 358.841 68.1094 359.375 67.25C359.909 66.3776 360.586 65.7005 361.406 65.2188C362.24 64.724 363.229 64.4766 364.375 64.4766C364.635 64.4766 364.935 64.5091 365.273 64.5742C365.612 64.6263 365.846 64.6849 365.977 64.75Z" fill="white"/>
<path d="M25.1953 22.8828V24.6797C25.1953 26.8151 24.9284 28.7292 24.3945 30.4219C23.8607 32.1146 23.0924 33.5534 22.0898 34.7383C21.0872 35.9232 19.8828 36.8281 18.4766 37.4531C17.0833 38.0781 15.5208 38.3906 13.7891 38.3906C12.1094 38.3906 10.5664 38.0781 9.16016 37.4531C7.76693 36.8281 6.55599 35.9232 5.52734 34.7383C4.51172 33.5534 3.72396 32.1146 3.16406 30.4219C2.60417 28.7292 2.32422 26.8151 2.32422 24.6797V22.8828C2.32422 20.7474 2.59766 18.8398 3.14453 17.1602C3.70443 15.4674 4.49219 14.0286 5.50781 12.8438C6.52344 11.6458 7.72786 10.7344 9.12109 10.1094C10.5273 9.48438 12.0703 9.17188 13.75 9.17188C15.4818 9.17188 17.0443 9.48438 18.4375 10.1094C19.8438 10.7344 21.0482 11.6458 22.0508 12.8438C23.0664 14.0286 23.8411 15.4674 24.375 17.1602C24.9219 18.8398 25.1953 20.7474 25.1953 22.8828ZM21.4648 24.6797V22.8438C21.4648 21.151 21.2891 19.6536 20.9375 18.3516C20.599 17.0495 20.0977 15.9557 19.4336 15.0703C18.7695 14.1849 17.9557 13.5143 16.9922 13.0586C16.0417 12.6029 14.9609 12.375 13.75 12.375C12.5781 12.375 11.5169 12.6029 10.5664 13.0586C9.62891 13.5143 8.82161 14.1849 8.14453 15.0703C7.48047 15.9557 6.96615 17.0495 6.60156 18.3516C6.23698 19.6536 6.05469 21.151 6.05469 22.8438V24.6797C6.05469 26.3854 6.23698 27.8958 6.60156 29.2109C6.96615 30.513 7.48698 31.6133 8.16406 32.5117C8.85417 33.3971 9.66797 34.0677 10.6055 34.5234C11.556 34.9792 12.6172 35.207 13.7891 35.207C15.013 35.207 16.1003 34.9792 17.0508 34.5234C18.0013 34.0677 18.8021 33.3971 19.4531 32.5117C20.1172 31.6133 20.6185 30.513 20.957 29.2109C21.2956 27.8958 21.4648 26.3854 21.4648 24.6797ZM42.5977 32.3945C42.5977 31.8737 42.4805 31.3919 42.2461 30.9492C42.0247 30.4935 41.5625 30.0833 40.8594 29.7188C40.1693 29.3411 39.1276 29.0156 37.7344 28.7422C36.5625 28.4948 35.5013 28.2018 34.5508 27.8633C33.6133 27.5247 32.8125 27.1146 32.1484 26.6328C31.4974 26.151 30.9961 25.5846 30.6445 24.9336C30.293 24.2826 30.1172 23.5208 30.1172 22.6484C30.1172 21.8151 30.2995 21.0273 30.6641 20.2852C31.0417 19.543 31.569 18.8854 32.2461 18.3125C32.9362 17.7396 33.763 17.2904 34.7266 16.9648C35.6901 16.6393 36.7643 16.4766 37.9492 16.4766C39.6419 16.4766 41.0872 16.776 42.2852 17.375C43.4831 17.974 44.401 18.7747 45.0391 19.7773C45.6771 20.7669 45.9961 21.8672 45.9961 23.0781H42.3828C42.3828 22.4922 42.207 21.9258 41.8555 21.3789C41.5169 20.819 41.0156 20.3568 40.3516 19.9922C39.7005 19.6276 38.8997 19.4453 37.9492 19.4453C36.9466 19.4453 36.1328 19.6016 35.5078 19.9141C34.8958 20.2135 34.4466 20.5977 34.1602 21.0664C33.8867 21.5352 33.75 22.0299 33.75 22.5508C33.75 22.9414 33.8151 23.293 33.9453 23.6055C34.0885 23.9049 34.3359 24.1849 34.6875 24.4453C35.0391 24.6927 35.5339 24.9271 36.1719 25.1484C36.8099 25.3698 37.6237 25.5911 38.6133 25.8125C40.3451 26.2031 41.7708 26.6719 42.8906 27.2188C44.0104 27.7656 44.8438 28.4362 45.3906 29.2305C45.9375 30.0247 46.2109 30.9883 46.2109 32.1211C46.2109 33.0456 46.0156 33.8919 45.625 34.6602C45.2474 35.4284 44.694 36.0924 43.9648 36.6523C43.2487 37.1992 42.3893 37.6289 41.3867 37.9414C40.3971 38.2409 39.2839 38.3906 38.0469 38.3906C36.1849 38.3906 34.6094 38.0586 33.3203 37.3945C32.0312 36.7305 31.0547 35.8711 30.3906 34.8164C29.7266 33.7617 29.3945 32.6484 29.3945 31.4766H33.0273C33.0794 32.4661 33.3659 33.2539 33.8867 33.8398C34.4076 34.4128 35.0456 34.8229 35.8008 35.0703C36.556 35.3047 37.3047 35.4219 38.0469 35.4219C39.0365 35.4219 39.8633 35.2917 40.5273 35.0312C41.2044 34.7708 41.7188 34.4128 42.0703 33.957C42.4219 33.5013 42.5977 32.9805 42.5977 32.3945ZM54.8828 8V38H51.25V8H54.8828ZM59.7266 27.668V27.2188C59.7266 25.6953 59.9479 24.2826 60.3906 22.9805C60.8333 21.6654 61.4714 20.526 62.3047 19.5625C63.138 18.5859 64.1471 17.8307 65.332 17.2969C66.5169 16.75 67.8451 16.4766 69.3164 16.4766C70.8008 16.4766 72.1354 16.75 73.3203 17.2969C74.5182 17.8307 75.5339 18.5859 76.3672 19.5625C77.2135 20.526 77.8581 21.6654 78.3008 22.9805C78.7435 24.2826 78.9648 25.6953 78.9648 27.2188V27.668C78.9648 29.1914 78.7435 30.6042 78.3008 31.9062C77.8581 33.2083 77.2135 34.3477 76.3672 35.3242C75.5339 36.2878 74.5247 37.043 73.3398 37.5898C72.168 38.1237 70.8398 38.3906 69.3555 38.3906C67.8711 38.3906 66.5365 38.1237 65.3516 37.5898C64.1667 37.043 63.151 36.2878 62.3047 35.3242C61.4714 34.3477 60.8333 33.2083 60.3906 31.9062C59.9479 30.6042 59.7266 29.1914 59.7266 27.668ZM63.3398 27.2188V27.668C63.3398 28.7227 63.4635 29.7188 63.7109 30.6562C63.9583 31.5807 64.3294 32.401 64.8242 33.1172C65.332 33.8333 65.9635 34.3997 66.7188 34.8164C67.474 35.2201 68.3529 35.4219 69.3555 35.4219C70.3451 35.4219 71.2109 35.2201 71.9531 34.8164C72.7083 34.3997 73.3333 33.8333 73.8281 33.1172C74.3229 32.401 74.694 31.5807 74.9414 30.6562C75.2018 29.7188 75.332 28.7227 75.332 27.668V27.2188C75.332 26.1771 75.2018 25.194 74.9414 24.2695C74.694 23.332 74.3164 22.5052 73.8086 21.7891C73.3138 21.0599 72.6888 20.487 71.9336 20.0703C71.1914 19.6536 70.319 19.4453 69.3164 19.4453C68.3268 19.4453 67.4544 19.6536 66.6992 20.0703C65.957 20.487 65.332 21.0599 64.8242 21.7891C64.3294 22.5052 63.9583 23.332 63.7109 24.2695C63.4635 25.194 63.3398 26.1771 63.3398 27.2188Z" fill="white"/>
</svg>
