<svg width="400" height="212" viewBox="0 0 400 212" fill="none" xmlns="http://www.w3.org/2000/svg">
<path d="M3.77344 13.4141L3.99219 14.9141L4.3125 13.5625L6.5625 5.625H7.82812L10.0234 13.5625L10.3359 14.9375L10.5781 13.4062L12.3438 5.625H13.8516L11.0938 17H9.72656L7.38281 8.71094L7.20312 7.84375L7.02344 8.71094L4.59375 17H3.22656L0.476562 5.625H1.97656L3.77344 13.4141ZM16.8672 17H15.4219V8.54688H16.8672V17ZM15.3047 6.30469C15.3047 6.07031 15.375 5.8724 15.5156 5.71094C15.6615 5.54948 15.875 5.46875 16.1562 5.46875C16.4375 5.46875 16.651 5.54948 16.7969 5.71094C16.9427 5.8724 17.0156 6.07031 17.0156 6.30469C17.0156 6.53906 16.9427 6.73438 16.7969 6.89062C16.651 7.04688 16.4375 7.125 16.1562 7.125C15.875 7.125 15.6615 7.04688 15.5156 6.89062C15.375 6.73438 15.3047 6.53906 15.3047 6.30469ZM20.5547 8.54688L20.6016 9.60938C21.2474 8.79688 22.0911 8.39062 23.1328 8.39062C24.9193 8.39062 25.8203 9.39844 25.8359 11.4141V17H24.3906V11.4062C24.3854 10.7969 24.2448 10.3464 23.9688 10.0547C23.6979 9.76302 23.2734 9.61719 22.6953 9.61719C22.2266 9.61719 21.8151 9.74219 21.4609 9.99219C21.1068 10.2422 20.8307 10.5703 20.6328 10.9766V17H19.1875V8.54688H20.5547ZM27.6641 12.7031C27.6641 11.4062 27.9714 10.3646 28.5859 9.57812C29.2005 8.78646 30.0052 8.39062 31 8.39062C31.9896 8.39062 32.7734 8.72917 33.3516 9.40625V5H34.7969V17H33.4688L33.3984 16.0938C32.8203 16.8021 32.0156 17.1562 30.9844 17.1562C30.0052 17.1562 29.2057 16.7552 28.5859 15.9531C27.9714 15.151 27.6641 14.1042 27.6641 12.8125V12.7031ZM29.1094 12.8672C29.1094 13.8255 29.3073 14.5755 29.7031 15.1172C30.099 15.6589 30.6458 15.9297 31.3438 15.9297C32.2604 15.9297 32.9297 15.5182 33.3516 14.6953V10.8125C32.9193 10.0156 32.2552 9.61719 31.3594 9.61719C30.651 9.61719 30.099 9.89062 29.7031 10.4375C29.3073 10.9844 29.1094 11.7943 29.1094 12.8672ZM36.9922 12.3828C36.9922 11.2057 37.1484 10.0755 37.4609 8.99219C37.7786 7.90885 38.25 6.92448 38.875 6.03906C39.5 5.15365 40.1484 4.52865 40.8203 4.16406L41.1172 5.11719C40.3568 5.70052 39.7318 6.59115 39.2422 7.78906C38.7578 8.98698 38.4922 10.3281 38.4453 11.8125L38.4375 12.4766C38.4375 14.487 38.8047 16.2318 39.5391 17.7109C39.9818 18.5964 40.5078 19.2891 41.1172 19.7891L40.8203 20.6719C40.1276 20.2865 39.4661 19.6406 38.8359 18.7344C37.6068 16.9635 36.9922 14.8464 36.9922 12.3828ZM42.1719 12.7031C42.1719 11.3854 42.4766 10.3385 43.0859 9.5625C43.6953 8.78125 44.5026 8.39062 45.5078 8.39062C46.5391 8.39062 47.3438 8.75521 47.9219 9.48438L47.9922 8.54688H49.3125V16.7969C49.3125 17.8906 48.987 18.7526 48.3359 19.3828C47.6901 20.013 46.8203 20.3281 45.7266 20.3281C45.1172 20.3281 44.5208 20.1979 43.9375 19.9375C43.3542 19.6771 42.9089 19.3203 42.6016 18.8672L43.3516 18C43.9714 18.7656 44.7292 19.1484 45.625 19.1484C46.3281 19.1484 46.875 18.9505 47.2656 18.5547C47.6615 18.1589 47.8594 17.6016 47.8594 16.8828V16.1562C47.2812 16.8229 46.4922 17.1562 45.4922 17.1562C44.5026 17.1562 43.7005 16.7578 43.0859 15.9609C42.4766 15.1641 42.1719 14.0781 42.1719 12.7031ZM43.625 12.8672C43.625 13.8203 43.8203 14.5703 44.2109 15.1172C44.6016 15.6589 45.1484 15.9297 45.8516 15.9297C46.763 15.9297 47.4323 15.5156 47.8594 14.6875V10.8281C47.4167 10.0208 46.7526 9.61719 45.8672 9.61719C45.1641 9.61719 44.6146 9.89062 44.2188 10.4375C43.8229 10.9844 43.625 11.7943 43.625 12.8672ZM56.7188 16.1641C56.1562 16.8255 55.3307 17.1562 54.2422 17.1562C53.3411 17.1562 52.6536 16.8958 52.1797 16.375C51.7109 15.849 51.474 15.0729 51.4688 14.0469V8.54688H52.9141V14.0078C52.9141 15.2891 53.4349 15.9297 54.4766 15.9297C55.5807 15.9297 56.3151 15.5182 56.6797 14.6953V8.54688H58.125V17H56.75L56.7188 16.1641ZM65.25 14.7578C65.25 14.3672 65.1016 14.0651 64.8047 13.8516C64.513 13.6328 64 13.4453 63.2656 13.2891C62.5365 13.1328 61.9557 12.9453 61.5234 12.7266C61.0964 12.5078 60.7786 12.2474 60.5703 11.9453C60.3672 11.6432 60.2656 11.2839 60.2656 10.8672C60.2656 10.1745 60.5573 9.58854 61.1406 9.10938C61.7292 8.63021 62.4792 8.39062 63.3906 8.39062C64.349 8.39062 65.125 8.63802 65.7188 9.13281C66.3177 9.6276 66.6172 10.2604 66.6172 11.0312H65.1641C65.1641 10.6354 64.9948 10.2943 64.6562 10.0078C64.3229 9.72135 63.901 9.57812 63.3906 9.57812C62.8646 9.57812 62.4531 9.69271 62.1562 9.92188C61.8594 10.151 61.7109 10.4505 61.7109 10.8203C61.7109 11.1693 61.849 11.4323 62.125 11.6094C62.401 11.7865 62.8984 11.9557 63.6172 12.1172C64.3411 12.2786 64.9271 12.4714 65.375 12.6953C65.8229 12.9193 66.1536 13.1901 66.3672 13.5078C66.5859 13.8203 66.6953 14.2031 66.6953 14.6562C66.6953 15.4115 66.3932 16.0182 65.7891 16.4766C65.1849 16.9297 64.401 17.1562 63.4375 17.1562C62.7604 17.1562 62.1615 17.0365 61.6406 16.7969C61.1198 16.5573 60.7109 16.224 60.4141 15.7969C60.1224 15.3646 59.9766 14.8984 59.9766 14.3984H61.4219C61.4479 14.8828 61.6406 15.2682 62 15.5547C62.3646 15.8359 62.8438 15.9766 63.4375 15.9766C63.9844 15.9766 64.4219 15.8672 64.75 15.6484C65.0833 15.4245 65.25 15.1276 65.25 14.7578ZM70.5391 6.5V8.54688H72.1172V9.66406H70.5391V14.9062C70.5391 15.2448 70.6094 15.5 70.75 15.6719C70.8906 15.8385 71.1302 15.9219 71.4688 15.9219C71.6354 15.9219 71.8646 15.8906 72.1562 15.8281V17C71.776 17.1042 71.4062 17.1562 71.0469 17.1562C70.401 17.1562 69.9141 16.9609 69.5859 16.5703C69.2578 16.1797 69.0938 15.625 69.0938 14.9062V9.66406H67.5547V8.54688H69.0938V6.5H70.5391ZM77.1484 12.4609C77.1484 13.6224 76.9948 14.737 76.6875 15.8047C76.3854 16.8672 75.9193 17.849 75.2891 18.75C74.6641 19.651 74.0078 20.2917 73.3203 20.6719L73.0156 19.7891C73.8177 19.1745 74.4609 18.2214 74.9453 16.9297C75.4349 15.6328 75.6849 14.1953 75.6953 12.6172V12.3672C75.6953 11.2734 75.5807 10.2578 75.3516 9.32031C75.1224 8.3776 74.8021 7.53385 74.3906 6.78906C73.9844 6.04427 73.526 5.46354 73.0156 5.04688L73.3203 4.16406C74.0078 4.54427 74.6615 5.17969 75.2812 6.07031C75.9062 6.96094 76.3724 7.94271 76.6797 9.01562C76.9922 10.0885 77.1484 11.237 77.1484 12.4609Z" fill="white"/>
<path d="M314.211 17H312.758V7.36719L309.844 8.4375V7.125L313.984 5.57031H314.211V17ZM325.789 6.4375L321.078 17H319.562L324.258 6.8125H318.102V5.625H325.789V6.4375ZM333.906 13.0859L333 14.0312V17H331.555V5H333V12.2578L333.773 11.3281L336.406 8.54688H338.164L334.875 12.0781L338.547 17H336.852L333.906 13.0859ZM341.016 8.54688L341.055 9.48438C341.674 8.75521 342.51 8.39062 343.562 8.39062C344.745 8.39062 345.549 8.84375 345.977 9.75C346.258 9.34375 346.622 9.01562 347.07 8.76562C347.523 8.51562 348.057 8.39062 348.672 8.39062C350.526 8.39062 351.469 9.3724 351.5 11.3359V17H350.055V11.4219C350.055 10.8177 349.917 10.3672 349.641 10.0703C349.365 9.76823 348.901 9.61719 348.25 9.61719C347.714 9.61719 347.268 9.77865 346.914 10.1016C346.56 10.4193 346.354 10.849 346.297 11.3906V17H344.844V11.4609C344.844 10.2318 344.242 9.61719 343.039 9.61719C342.091 9.61719 341.443 10.0208 341.094 10.8281V17H339.648V8.54688H341.016ZM353.977 17.9766H352.734L357.484 5.625H358.719L353.977 17.9766ZM361.727 9.57031C362.367 8.78385 363.201 8.39062 364.227 8.39062C366.013 8.39062 366.914 9.39844 366.93 11.4141V17H365.484V11.4062C365.479 10.7969 365.339 10.3464 365.062 10.0547C364.792 9.76302 364.367 9.61719 363.789 9.61719C363.32 9.61719 362.909 9.74219 362.555 9.99219C362.201 10.2422 361.924 10.5703 361.727 10.9766V17H360.281V5H361.727V9.57031Z" fill="white"/>
<path d="M394.998 10C396.656 10 398 11.343 398 13C398 14.5979 396.75 15.9037 395.174 15.9949L394.967 15.9999L394.865 16.0067L393.7 16.0071C393.89 16.3801 393.998 16.8022 393.998 17.2496C393.998 18.7792 392.845 20.0056 391.323 20.0056C389.818 20.0056 388.908 19.1239 388.663 17.9027C388.581 17.4966 388.845 17.1013 389.251 17.0199C389.657 16.9385 390.052 17.2018 390.133 17.6079C390.247 18.1732 390.59 18.5056 391.323 18.5056C391.995 18.5056 392.498 17.9708 392.498 17.2496C392.498 16.5614 391.93 16 391.225 16L378.737 16.0067C378.322 16.0067 377.987 15.6709 377.987 15.2567C377.987 14.877 378.269 14.5632 378.635 14.5135L378.737 14.5067L391.124 14.5069L391.225 14.5C391.29 14.5 391.353 14.5022 391.416 14.5064L394.888 14.508L394.942 14.502L395.143 14.4932C395.904 14.4205 396.5 13.7796 396.5 13C396.5 12.1717 395.828 11.5 394.998 11.5C394.249 11.5 393.624 12.0488 393.513 12.7705L393.486 13.0089C393.414 13.3713 393.084 13.6341 392.705 13.6112C392.291 13.5863 391.976 13.2309 392.001 12.8174C392.097 11.2382 393.408 10 394.998 10ZM388 12H378.756C378.341 12 378.006 11.6642 378.006 11.25C378.006 10.8703 378.288 10.5565 378.654 10.5069L378.756 10.5H388C389.381 10.5 390.501 9.38059 390.501 7.99971C390.501 6.61882 389.381 5.49939 388 5.49939C386.619 5.49939 385.5 6.61882 385.5 7.99971C385.5 8.41392 385.164 8.74971 384.75 8.74971C384.336 8.74971 384 8.41392 384 7.99971C384 5.79039 385.791 3.99939 388 3.99939C390.21 3.99939 392.001 5.79039 392.001 7.99971C392.001 10.1349 390.328 11.8794 388.221 11.994L388 12H378.756H388Z" fill="white"/>
<rect y="40" width="400" height="1" fill="white"/>
<path d="M4.67188 68.9297C3.38542 68.5599 2.44792 68.1068 1.85938 67.5703C1.27604 67.0286 0.984375 66.362 0.984375 65.5703C0.984375 64.6745 1.34115 63.9349 2.05469 63.3516C2.77344 62.763 3.70573 62.4688 4.85156 62.4688C5.63281 62.4688 6.32812 62.6198 6.9375 62.9219C7.55208 63.224 8.02604 63.6406 8.35938 64.1719C8.69792 64.7031 8.86719 65.2839 8.86719 65.9141H7.35938C7.35938 65.2266 7.14062 64.6875 6.70312 64.2969C6.26562 63.901 5.64844 63.7031 4.85156 63.7031C4.11198 63.7031 3.53385 63.8672 3.11719 64.1953C2.70573 64.5182 2.5 64.9688 2.5 65.5469C2.5 66.0104 2.69531 66.4036 3.08594 66.7266C3.48177 67.0443 4.15104 67.3359 5.09375 67.6016C6.04167 67.8672 6.78125 68.1615 7.3125 68.4844C7.84896 68.8021 8.24479 69.1745 8.5 69.6016C8.76042 70.0286 8.89062 70.5312 8.89062 71.1094C8.89062 72.0312 8.53125 72.7708 7.8125 73.3281C7.09375 73.8802 6.13281 74.1562 4.92969 74.1562C4.14844 74.1562 3.41927 74.0078 2.74219 73.7109C2.0651 73.4089 1.54167 72.9974 1.17188 72.4766C0.807292 71.9557 0.625 71.3646 0.625 70.7031H2.13281C2.13281 71.3906 2.38542 71.9349 2.89062 72.3359C3.40104 72.7318 4.08073 72.9297 4.92969 72.9297C5.72135 72.9297 6.32812 72.7682 6.75 72.4453C7.17188 72.1224 7.38281 71.6823 7.38281 71.125C7.38281 70.5677 7.1875 70.138 6.79688 69.8359C6.40625 69.5286 5.69792 69.2266 4.67188 68.9297ZM15.8125 73.1641C15.25 73.8255 14.4245 74.1562 13.3359 74.1562C12.4349 74.1562 11.7474 73.8958 11.2734 73.375C10.8047 72.849 10.5677 72.0729 10.5625 71.0469V65.5469H12.0078V71.0078C12.0078 72.2891 12.5286 72.9297 13.5703 72.9297C14.6745 72.9297 15.4089 72.5182 15.7734 71.6953V65.5469H17.2188V74H15.8438L15.8125 73.1641ZM20.7891 65.5469L20.8359 66.6094C21.4818 65.7969 22.3255 65.3906 23.3672 65.3906C25.1536 65.3906 26.0547 66.3984 26.0703 68.4141V74H24.625V68.4062C24.6198 67.7969 24.4792 67.3464 24.2031 67.0547C23.9323 66.763 23.5078 66.6172 22.9297 66.6172C22.4609 66.6172 22.0495 66.7422 21.6953 66.9922C21.3411 67.2422 21.0651 67.5703 20.8672 67.9766V74H19.4219V65.5469H20.7891ZM32.3359 66.8438C32.1172 66.8073 31.8802 66.7891 31.625 66.7891C30.6771 66.7891 30.0339 67.1927 29.6953 68V74H28.25V65.5469H29.6562L29.6797 66.5234C30.1536 65.7682 30.8255 65.3906 31.6953 65.3906C31.9766 65.3906 32.1901 65.4271 32.3359 65.5V66.8438ZM35.2422 74H33.7969V65.5469H35.2422V74ZM33.6797 63.3047C33.6797 63.0703 33.75 62.8724 33.8906 62.7109C34.0365 62.5495 34.25 62.4688 34.5312 62.4688C34.8125 62.4688 35.026 62.5495 35.1719 62.7109C35.3177 62.8724 35.3906 63.0703 35.3906 63.3047C35.3906 63.5391 35.3177 63.7344 35.1719 63.8906C35.026 64.0469 34.8125 64.125 34.5312 64.125C34.25 64.125 34.0365 64.0469 33.8906 63.8906C33.75 63.7344 33.6797 63.5391 33.6797 63.3047ZM42.4844 71.7578C42.4844 71.3672 42.3359 71.0651 42.0391 70.8516C41.7474 70.6328 41.2344 70.4453 40.5 70.2891C39.7708 70.1328 39.1901 69.9453 38.7578 69.7266C38.3307 69.5078 38.013 69.2474 37.8047 68.9453C37.6016 68.6432 37.5 68.2839 37.5 67.8672C37.5 67.1745 37.7917 66.5885 38.375 66.1094C38.9635 65.6302 39.7135 65.3906 40.625 65.3906C41.5833 65.3906 42.3594 65.638 42.9531 66.1328C43.5521 66.6276 43.8516 67.2604 43.8516 68.0312H42.3984C42.3984 67.6354 42.2292 67.2943 41.8906 67.0078C41.5573 66.7214 41.1354 66.5781 40.625 66.5781C40.099 66.5781 39.6875 66.6927 39.3906 66.9219C39.0938 67.151 38.9453 67.4505 38.9453 67.8203C38.9453 68.1693 39.0833 68.4323 39.3594 68.6094C39.6354 68.7865 40.1328 68.9557 40.8516 69.1172C41.5755 69.2786 42.1615 69.4714 42.6094 69.6953C43.0573 69.9193 43.388 70.1901 43.6016 70.5078C43.8203 70.8203 43.9297 71.2031 43.9297 71.6562C43.9297 72.4115 43.6276 73.0182 43.0234 73.4766C42.4193 73.9297 41.6354 74.1562 40.6719 74.1562C39.9948 74.1562 39.3958 74.0365 38.875 73.7969C38.3542 73.5573 37.9453 73.224 37.6484 72.7969C37.3568 72.3646 37.2109 71.8984 37.2109 71.3984H38.6562C38.6823 71.8828 38.875 72.2682 39.2344 72.5547C39.599 72.8359 40.0781 72.9766 40.6719 72.9766C41.2188 72.9766 41.6562 72.8672 41.9844 72.6484C42.3177 72.4245 42.4844 72.1276 42.4844 71.7578ZM49.3203 74.1562C48.1745 74.1562 47.2422 73.7812 46.5234 73.0312C45.8047 72.276 45.4453 71.2682 45.4453 70.0078V69.7422C45.4453 68.9036 45.6042 68.1562 45.9219 67.5C46.2448 66.8385 46.6927 66.3229 47.2656 65.9531C47.8438 65.5781 48.4688 65.3906 49.1406 65.3906C50.2396 65.3906 51.0938 65.7526 51.7031 66.4766C52.3125 67.2005 52.6172 68.237 52.6172 69.5859V70.1875H46.8906C46.9115 71.0208 47.1536 71.6953 47.6172 72.2109C48.0859 72.7214 48.6797 72.9766 49.3984 72.9766C49.9089 72.9766 50.3411 72.8724 50.6953 72.6641C51.0495 72.4557 51.3594 72.1797 51.625 71.8359L52.5078 72.5234C51.7995 73.612 50.737 74.1562 49.3203 74.1562ZM49.1406 66.5781C48.5573 66.5781 48.0677 66.7917 47.6719 67.2188C47.276 67.6406 47.0312 68.2344 46.9375 69H51.1719V68.8906C51.1302 68.1562 50.9323 67.5885 50.5781 67.1875C50.224 66.7812 49.7448 66.5781 49.1406 66.5781Z" fill="white"/>
<path d="M336.266 69.1484C336.266 70.8411 335.977 72.099 335.398 72.9219C334.82 73.7448 333.917 74.1562 332.688 74.1562C331.474 74.1562 330.576 73.7552 329.992 72.9531C329.409 72.1458 329.107 70.9427 329.086 69.3438V67.4141C329.086 65.7422 329.375 64.5 329.953 63.6875C330.531 62.875 331.438 62.4688 332.672 62.4688C333.896 62.4688 334.797 62.862 335.375 63.6484C335.953 64.4297 336.25 65.638 336.266 67.2734V69.1484ZM334.82 67.1719C334.82 65.9479 334.648 65.0573 334.305 64.5C333.961 63.9375 333.417 63.6562 332.672 63.6562C331.932 63.6562 331.393 63.9349 331.055 64.4922C330.716 65.0495 330.542 65.9062 330.531 67.0625V69.375C330.531 70.6042 330.708 71.513 331.063 72.1016C331.422 72.6849 331.964 72.9766 332.688 72.9766C333.401 72.9766 333.93 72.7005 334.273 72.1484C334.622 71.5964 334.805 70.7266 334.82 69.5391V67.1719ZM343.789 62.6172V63.8438H343.523C342.398 63.8646 341.503 64.1979 340.836 64.8438C340.169 65.4896 339.784 66.3984 339.68 67.5703C340.279 66.8828 341.096 66.5391 342.133 66.5391C343.122 66.5391 343.911 66.888 344.5 67.5859C345.094 68.2839 345.391 69.1849 345.391 70.2891C345.391 71.4609 345.07 72.3984 344.43 73.1016C343.794 73.8047 342.94 74.1562 341.867 74.1562C340.779 74.1562 339.896 73.7396 339.219 72.9062C338.542 72.0677 338.203 70.9896 338.203 69.6719V69.1172C338.203 67.0234 338.648 65.4245 339.539 64.3203C340.435 63.2109 341.766 62.6432 343.531 62.6172H343.789ZM341.891 67.7422C341.396 67.7422 340.94 67.8906 340.523 68.1875C340.107 68.4844 339.818 68.8568 339.656 69.3047V69.8359C339.656 70.7734 339.867 71.5286 340.289 72.1016C340.711 72.6745 341.237 72.9609 341.867 72.9609C342.518 72.9609 343.029 72.7214 343.398 72.2422C343.773 71.763 343.961 71.1354 343.961 70.3594C343.961 69.5781 343.771 68.9479 343.391 68.4688C343.016 67.9844 342.516 67.7422 341.891 67.7422ZM347.203 73.2422C347.203 72.9922 347.276 72.7839 347.422 72.6172C347.573 72.4505 347.797 72.3672 348.094 72.3672C348.391 72.3672 348.615 72.4505 348.766 72.6172C348.922 72.7839 349 72.9922 349 73.2422C349 73.4818 348.922 73.6823 348.766 73.8438C348.615 74.0052 348.391 74.0859 348.094 74.0859C347.797 74.0859 347.573 74.0052 347.422 73.8438C347.276 73.6823 347.203 73.4818 347.203 73.2422ZM347.211 66.3438C347.211 66.0938 347.284 65.8854 347.43 65.7188C347.581 65.5521 347.805 65.4688 348.102 65.4688C348.398 65.4688 348.622 65.5521 348.773 65.7188C348.93 65.8854 349.008 66.0938 349.008 66.3438C349.008 66.5833 348.93 66.7839 348.773 66.9453C348.622 67.1068 348.398 67.1875 348.102 67.1875C347.805 67.1875 347.581 67.1068 347.43 66.9453C347.284 66.7839 347.211 66.5833 347.211 66.3438ZM357.078 70.1797H358.656V71.3594H357.078V74H355.625V71.3594H350.445V70.5078L355.539 62.625H357.078V70.1797ZM352.086 70.1797H355.625V64.6016L355.453 64.9141L352.086 70.1797ZM360.625 68.2969L361.203 62.625H367.031V63.9609H362.43L362.086 67.0625C362.643 66.7344 363.276 66.5703 363.984 66.5703C365.021 66.5703 365.844 66.9141 366.453 67.6016C367.063 68.2839 367.367 69.2083 367.367 70.375C367.367 71.5469 367.049 72.4714 366.414 73.1484C365.784 73.8203 364.901 74.1562 363.766 74.1562C362.76 74.1562 361.94 73.8776 361.305 73.3203C360.669 72.763 360.307 71.9922 360.219 71.0078H361.586C361.674 71.6589 361.906 72.151 362.281 72.4844C362.656 72.8125 363.151 72.9766 363.766 72.9766C364.438 72.9766 364.964 72.7474 365.344 72.2891C365.729 71.8307 365.922 71.1979 365.922 70.3906C365.922 69.6302 365.714 69.0208 365.297 68.5625C364.885 68.099 364.336 67.8672 363.648 67.8672C363.018 67.8672 362.523 68.0052 362.164 68.2812L361.781 68.5938L360.625 68.2969Z" fill="white"/>
<path d="M397.845 74.7815C397.586 74.4582 397.115 74.4057 396.791 74.6641L396.787 74.6677L396.761 74.6874C396.737 74.7057 396.699 74.7342 396.648 74.7715C396.545 74.846 396.388 74.9553 396.182 75.0879C395.769 75.3533 395.159 75.7107 394.383 76.0691C392.828 76.7867 390.623 77.5 388.009 77.5C385.395 77.5 383.191 76.7867 381.636 76.0691C380.86 75.7107 380.25 75.3533 379.837 75.0879C379.63 74.9553 379.474 74.846 379.371 74.7715C379.32 74.7342 379.282 74.7057 379.258 74.6874L379.232 74.6677L379.228 74.6644C378.904 74.406 378.432 74.4582 378.174 74.7815C377.915 75.105 377.967 75.5769 378.291 75.8357L378.293 75.8375L378.297 75.8405L378.308 75.8496C378.318 75.857 378.331 75.8673 378.348 75.8801C378.381 75.9057 378.429 75.9416 378.491 75.9864C378.615 76.0759 378.794 76.201 379.026 76.3497C379.488 76.6468 380.159 77.0393 381.008 77.431C382.703 78.2133 385.123 79 388.009 79C390.895 79 393.316 78.2133 395.011 77.431C395.86 77.0393 396.531 76.6468 396.993 76.3497C397.224 76.201 397.404 76.0759 397.527 75.9864C397.589 75.9416 397.637 75.9057 397.671 75.8801C397.687 75.8673 397.701 75.857 397.71 75.8496L397.725 75.8375L397.727 75.8365C397.727 75.8365 398.253 75.2917 397.845 74.7815Z" fill="white"/>
<path d="M388 59C388.414 59 388.75 59.3358 388.75 59.75V60.25C388.75 60.6642 388.414 61 388 61C387.586 61 387.25 60.6642 387.25 60.25V59.75C387.25 59.3358 387.586 59 388 59ZM388 62C385.791 62 384 63.7909 384 66C384 68.2091 385.791 70 388 70C390.209 70 392 68.2091 392 66C392 63.7909 390.209 62 388 62ZM385.5 66C385.5 64.6193 386.619 63.5 388 63.5C389.381 63.5 390.5 64.6193 390.5 66C390.5 67.3807 389.381 68.5 388 68.5C386.619 68.5 385.5 67.3807 385.5 66ZM388.75 71.75C388.75 71.3358 388.414 71 388 71C387.586 71 387.25 71.3358 387.25 71.75V72.25C387.25 72.6642 387.586 73 388 73C388.414 73 388.75 72.6642 388.75 72.25V71.75ZM381.75 65C381.336 65 381 65.3358 381 65.75C381 66.1642 381.336 66.5 381.75 66.5H382.25C382.664 66.5 383 66.1642 383 65.75C383 65.3358 382.664 65 382.25 65H381.75ZM393 65.75C393 65.3358 393.336 65 393.75 65H394.25C394.664 65 395 65.3358 395 65.75C395 66.1642 394.664 66.5 394.25 66.5H393.75C393.336 66.5 393 66.1642 393 65.75ZM382.72 62.7803C383.013 63.0732 383.487 63.0732 383.78 62.7803C384.073 62.4874 384.073 62.0126 383.78 61.7197L383.28 61.2197C382.987 60.9268 382.513 60.9268 382.22 61.2197C381.927 61.5126 381.927 61.9874 382.22 62.2803L382.72 62.7803ZM383.78 69.2197C383.487 68.9268 383.013 68.9268 382.72 69.2197L382.22 69.7197C381.927 70.0126 381.927 70.4874 382.22 70.7803C382.513 71.0732 382.987 71.0732 383.28 70.7803L383.78 70.2803C384.073 69.9874 384.073 69.5126 383.78 69.2197ZM393.28 62.7803C392.987 63.0732 392.513 63.0732 392.22 62.7803C391.927 62.4874 391.927 62.0126 392.22 61.7197L392.72 61.2197C393.013 60.9268 393.487 60.9268 393.78 61.2197C394.073 61.5126 394.073 61.9874 393.78 62.2803L393.28 62.7803ZM392.22 69.2197C392.513 68.9268 392.987 68.9268 393.28 69.2197L393.78 69.7197C394.073 70.0126 394.073 70.4874 393.78 70.7803C393.487 71.0732 393.013 71.0732 392.72 70.7803L392.22 70.2803C391.927 69.9874 391.927 69.5126 392.22 69.2197Z" fill="white"/>
<rect y="97" width="400" height="1" fill="white"/>
<path d="M4.67188 125.93C3.38542 125.56 2.44792 125.107 1.85938 124.57C1.27604 124.029 0.984375 123.362 0.984375 122.57C0.984375 121.674 1.34115 120.935 2.05469 120.352C2.77344 119.763 3.70573 119.469 4.85156 119.469C5.63281 119.469 6.32812 119.62 6.9375 119.922C7.55208 120.224 8.02604 120.641 8.35938 121.172C8.69792 121.703 8.86719 122.284 8.86719 122.914H7.35938C7.35938 122.227 7.14062 121.688 6.70312 121.297C6.26562 120.901 5.64844 120.703 4.85156 120.703C4.11198 120.703 3.53385 120.867 3.11719 121.195C2.70573 121.518 2.5 121.969 2.5 122.547C2.5 123.01 2.69531 123.404 3.08594 123.727C3.48177 124.044 4.15104 124.336 5.09375 124.602C6.04167 124.867 6.78125 125.161 7.3125 125.484C7.84896 125.802 8.24479 126.174 8.5 126.602C8.76042 127.029 8.89062 127.531 8.89062 128.109C8.89062 129.031 8.53125 129.771 7.8125 130.328C7.09375 130.88 6.13281 131.156 4.92969 131.156C4.14844 131.156 3.41927 131.008 2.74219 130.711C2.0651 130.409 1.54167 129.997 1.17188 129.477C0.807292 128.956 0.625 128.365 0.625 127.703H2.13281C2.13281 128.391 2.38542 128.935 2.89062 129.336C3.40104 129.732 4.08073 129.93 4.92969 129.93C5.72135 129.93 6.32812 129.768 6.75 129.445C7.17188 129.122 7.38281 128.682 7.38281 128.125C7.38281 127.568 7.1875 127.138 6.79688 126.836C6.40625 126.529 5.69792 126.227 4.67188 125.93ZM15.8125 130.164C15.25 130.826 14.4245 131.156 13.3359 131.156C12.4349 131.156 11.7474 130.896 11.2734 130.375C10.8047 129.849 10.5677 129.073 10.5625 128.047V122.547H12.0078V128.008C12.0078 129.289 12.5286 129.93 13.5703 129.93C14.6745 129.93 15.4089 129.518 15.7734 128.695V122.547H17.2188V131H15.8438L15.8125 130.164ZM20.7891 122.547L20.8359 123.609C21.4818 122.797 22.3255 122.391 23.3672 122.391C25.1536 122.391 26.0547 123.398 26.0703 125.414V131H24.625V125.406C24.6198 124.797 24.4792 124.346 24.2031 124.055C23.9323 123.763 23.5078 123.617 22.9297 123.617C22.4609 123.617 22.0495 123.742 21.6953 123.992C21.3411 124.242 21.0651 124.57 20.8672 124.977V131H19.4219V122.547H20.7891ZM33.1719 128.758C33.1719 128.367 33.0234 128.065 32.7266 127.852C32.4349 127.633 31.9219 127.445 31.1875 127.289C30.4583 127.133 29.8776 126.945 29.4453 126.727C29.0182 126.508 28.7005 126.247 28.4922 125.945C28.2891 125.643 28.1875 125.284 28.1875 124.867C28.1875 124.174 28.4792 123.589 29.0625 123.109C29.651 122.63 30.401 122.391 31.3125 122.391C32.2708 122.391 33.0469 122.638 33.6406 123.133C34.2396 123.628 34.5391 124.26 34.5391 125.031H33.0859C33.0859 124.635 32.9167 124.294 32.5781 124.008C32.2448 123.721 31.8229 123.578 31.3125 123.578C30.7865 123.578 30.375 123.693 30.0781 123.922C29.7812 124.151 29.6328 124.451 29.6328 124.82C29.6328 125.169 29.7708 125.432 30.0469 125.609C30.3229 125.786 30.8203 125.956 31.5391 126.117C32.263 126.279 32.849 126.471 33.2969 126.695C33.7448 126.919 34.0755 127.19 34.2891 127.508C34.5078 127.82 34.6172 128.203 34.6172 128.656C34.6172 129.411 34.3151 130.018 33.7109 130.477C33.1068 130.93 32.3229 131.156 31.3594 131.156C30.6823 131.156 30.0833 131.036 29.5625 130.797C29.0417 130.557 28.6328 130.224 28.3359 129.797C28.0443 129.365 27.8984 128.898 27.8984 128.398H29.3438C29.3698 128.883 29.5625 129.268 29.9219 129.555C30.2865 129.836 30.7656 129.977 31.3594 129.977C31.9062 129.977 32.3438 129.867 32.6719 129.648C33.0052 129.424 33.1719 129.128 33.1719 128.758ZM40.0078 131.156C38.862 131.156 37.9297 130.781 37.2109 130.031C36.4922 129.276 36.1328 128.268 36.1328 127.008V126.742C36.1328 125.904 36.2917 125.156 36.6094 124.5C36.9323 123.839 37.3802 123.323 37.9531 122.953C38.5312 122.578 39.1562 122.391 39.8281 122.391C40.9271 122.391 41.7812 122.753 42.3906 123.477C43 124.201 43.3047 125.237 43.3047 126.586V127.188H37.5781C37.599 128.021 37.8411 128.695 38.3047 129.211C38.7734 129.721 39.3672 129.977 40.0859 129.977C40.5964 129.977 41.0286 129.872 41.3828 129.664C41.737 129.456 42.0469 129.18 42.3125 128.836L43.1953 129.523C42.487 130.612 41.4245 131.156 40.0078 131.156ZM39.8281 123.578C39.2448 123.578 38.7552 123.792 38.3594 124.219C37.9635 124.641 37.7188 125.234 37.625 126H41.8594V125.891C41.8177 125.156 41.6198 124.589 41.2656 124.188C40.9115 123.781 40.4323 123.578 39.8281 123.578ZM46.9453 120.5V122.547H48.5234V123.664H46.9453V128.906C46.9453 129.245 47.0156 129.5 47.1562 129.672C47.2969 129.839 47.5365 129.922 47.875 129.922C48.0417 129.922 48.2708 129.891 48.5625 129.828V131C48.1823 131.104 47.8125 131.156 47.4531 131.156C46.8073 131.156 46.3203 130.961 45.9922 130.57C45.6641 130.18 45.5 129.625 45.5 128.906V123.664H43.9609V122.547H45.5V120.5H46.9453Z" fill="white"/>
<path d="M333.883 131H332.43V121.367L329.516 122.438V121.125L333.656 119.57H333.883V131ZM343.656 126C343.354 126.359 342.992 126.648 342.57 126.867C342.154 127.086 341.695 127.195 341.195 127.195C340.539 127.195 339.966 127.034 339.477 126.711C338.992 126.388 338.617 125.935 338.352 125.352C338.086 124.763 337.953 124.115 337.953 123.406C337.953 122.646 338.096 121.961 338.383 121.352C338.674 120.742 339.086 120.276 339.617 119.953C340.148 119.63 340.768 119.469 341.477 119.469C342.602 119.469 343.487 119.891 344.133 120.734C344.784 121.573 345.109 122.719 345.109 124.172V124.594C345.109 126.807 344.672 128.424 343.797 129.445C342.922 130.461 341.602 130.982 339.836 131.008H339.555V129.789H339.859C341.052 129.768 341.969 129.458 342.609 128.859C343.25 128.255 343.599 127.302 343.656 126ZM341.43 126C341.914 126 342.359 125.852 342.766 125.555C343.177 125.258 343.477 124.891 343.664 124.453V123.875C343.664 122.927 343.458 122.156 343.047 121.562C342.635 120.969 342.115 120.672 341.484 120.672C340.849 120.672 340.339 120.917 339.953 121.406C339.568 121.891 339.375 122.531 339.375 123.328C339.375 124.104 339.56 124.745 339.93 125.25C340.305 125.75 340.805 126 341.43 126ZM347.203 130.242C347.203 129.992 347.276 129.784 347.422 129.617C347.573 129.451 347.797 129.367 348.094 129.367C348.391 129.367 348.615 129.451 348.766 129.617C348.922 129.784 349 129.992 349 130.242C349 130.482 348.922 130.682 348.766 130.844C348.615 131.005 348.391 131.086 348.094 131.086C347.797 131.086 347.573 131.005 347.422 130.844C347.276 130.682 347.203 130.482 347.203 130.242ZM347.211 123.344C347.211 123.094 347.284 122.885 347.43 122.719C347.581 122.552 347.805 122.469 348.102 122.469C348.398 122.469 348.622 122.552 348.773 122.719C348.93 122.885 349.008 123.094 349.008 123.344C349.008 123.583 348.93 123.784 348.773 123.945C348.622 124.107 348.398 124.188 348.102 124.188C347.805 124.188 347.581 124.107 347.43 123.945C347.284 123.784 347.211 123.583 347.211 123.344ZM353.078 124.609H354.164C354.846 124.599 355.383 124.419 355.773 124.07C356.164 123.721 356.359 123.25 356.359 122.656C356.359 121.323 355.695 120.656 354.367 120.656C353.742 120.656 353.242 120.836 352.867 121.195C352.497 121.549 352.312 122.021 352.312 122.609H350.867C350.867 121.708 351.195 120.961 351.852 120.367C352.513 119.768 353.352 119.469 354.367 119.469C355.44 119.469 356.281 119.753 356.891 120.32C357.5 120.888 357.805 121.677 357.805 122.688C357.805 123.182 357.643 123.661 357.32 124.125C357.003 124.589 356.568 124.935 356.016 125.164C356.641 125.362 357.122 125.69 357.461 126.148C357.805 126.607 357.977 127.167 357.977 127.828C357.977 128.849 357.643 129.659 356.977 130.258C356.31 130.857 355.443 131.156 354.375 131.156C353.307 131.156 352.438 130.867 351.766 130.289C351.099 129.711 350.766 128.948 350.766 128H352.219C352.219 128.599 352.414 129.078 352.805 129.438C353.195 129.797 353.719 129.977 354.375 129.977C355.073 129.977 355.607 129.794 355.977 129.43C356.346 129.065 356.531 128.542 356.531 127.859C356.531 127.198 356.328 126.69 355.922 126.336C355.516 125.982 354.93 125.799 354.164 125.789H353.078V124.609ZM367.305 120.438L362.594 131H361.078L365.773 120.812H359.617V119.625H367.305V120.438Z" fill="white"/>
<path d="M388 116C388.414 116 388.75 116.336 388.75 116.75V117.25C388.75 117.664 388.414 118 388 118C387.586 118 387.25 117.664 387.25 117.25V116.75C387.25 116.336 387.586 116 388 116ZM388 119C385.791 119 384 120.791 384 123C384 125.209 385.791 127 388 127C390.209 127 392 125.209 392 123C392 120.791 390.209 119 388 119ZM385.5 123C385.5 121.619 386.619 120.5 388 120.5C389.381 120.5 390.5 121.619 390.5 123C390.5 124.381 389.381 125.5 388 125.5C386.619 125.5 385.5 124.381 385.5 123ZM388.75 128.75C388.75 128.336 388.414 128 388 128C387.586 128 387.25 128.336 387.25 128.75V129.25C387.25 129.664 387.586 130 388 130C388.414 130 388.75 129.664 388.75 129.25V128.75ZM381.75 122C381.336 122 381 122.336 381 122.75C381 123.164 381.336 123.5 381.75 123.5H382.25C382.664 123.5 383 123.164 383 122.75C383 122.336 382.664 122 382.25 122H381.75ZM393 122.75C393 122.336 393.336 122 393.75 122H394.25C394.664 122 395 122.336 395 122.75C395 123.164 394.664 123.5 394.25 123.5H393.75C393.336 123.5 393 123.164 393 122.75ZM382.72 119.78C383.013 120.073 383.487 120.073 383.78 119.78C384.073 119.487 384.073 119.013 383.78 118.72L383.28 118.22C382.987 117.927 382.513 117.927 382.22 118.22C381.927 118.513 381.927 118.987 382.22 119.28L382.72 119.78ZM383.78 126.22C383.487 125.927 383.013 125.927 382.72 126.22L382.22 126.72C381.927 127.013 381.927 127.487 382.22 127.78C382.513 128.073 382.987 128.073 383.28 127.78L383.78 127.28C384.073 126.987 384.073 126.513 383.78 126.22ZM393.28 119.78C392.987 120.073 392.513 120.073 392.22 119.78C391.927 119.487 391.927 119.013 392.22 118.72L392.72 118.22C393.013 117.927 393.487 117.927 393.78 118.22C394.073 118.513 394.073 118.987 393.78 119.28L393.28 119.78ZM392.22 126.22C392.513 125.927 392.987 125.927 393.28 126.22L393.78 126.72C394.073 127.013 394.073 127.487 393.78 127.78C393.487 128.073 393.013 128.073 392.72 127.78L392.22 127.28C391.927 126.987 391.927 126.513 392.22 126.22ZM379.218 135.836C378.895 136.094 378.423 136.042 378.164 135.719C377.756 135.208 378.283 134.664 378.283 134.664L378.284 134.662L378.299 134.65C378.309 134.643 378.322 134.633 378.339 134.62C378.372 134.594 378.42 134.558 378.482 134.514C378.606 134.424 378.785 134.299 379.016 134.15C379.479 133.853 380.15 133.461 380.998 133.069C382.693 132.287 385.114 131.5 388 131.5C390.886 131.5 393.307 132.287 395.002 133.069C395.851 133.461 396.522 133.853 396.984 134.15C397.215 134.299 397.394 134.424 397.518 134.514C397.58 134.558 397.628 134.594 397.661 134.62C397.678 134.633 397.691 134.643 397.701 134.65L397.713 134.66L397.716 134.662L397.719 134.664C398.042 134.923 398.094 135.395 397.836 135.719C397.577 136.042 397.105 136.094 396.782 135.836L396.777 135.832L396.752 135.813C396.728 135.794 396.69 135.766 396.638 135.729C396.535 135.654 396.379 135.545 396.173 135.412C395.76 135.147 395.15 134.789 394.373 134.431C392.818 133.713 390.614 133 388 133C385.386 133 383.182 133.713 381.627 134.431C380.851 134.789 380.24 135.147 379.828 135.412C379.621 135.545 379.465 135.654 379.362 135.729C379.31 135.766 379.272 135.794 379.248 135.813L379.223 135.832L379.218 135.836Z" fill="white"/>
<rect y="154" width="400" height="1" fill="white"/>
<path d="M2.82031 183.547V188H1.32031V176.625H5.51562C6.76042 176.625 7.73438 176.943 8.4375 177.578C9.14583 178.214 9.5 179.055 9.5 180.102C9.5 181.206 9.15365 182.057 8.46094 182.656C7.77344 183.25 6.78646 183.547 5.5 183.547H2.82031ZM2.82031 182.32H5.51562C6.31771 182.32 6.93229 182.133 7.35938 181.758C7.78646 181.378 8 180.831 8 180.117C8 179.44 7.78646 178.898 7.35938 178.492C6.93229 178.086 6.34635 177.875 5.60156 177.859H2.82031V182.32ZM15.2734 180.844C15.0547 180.807 14.8177 180.789 14.5625 180.789C13.6146 180.789 12.9714 181.193 12.6328 182V188H11.1875V179.547H12.5938L12.6172 180.523C13.0911 179.768 13.763 179.391 14.6328 179.391C14.9141 179.391 15.1276 179.427 15.2734 179.5V180.844ZM19.9609 188.156C18.8151 188.156 17.8828 187.781 17.1641 187.031C16.4453 186.276 16.0859 185.268 16.0859 184.008V183.742C16.0859 182.904 16.2448 182.156 16.5625 181.5C16.8854 180.839 17.3333 180.323 17.9062 179.953C18.4844 179.578 19.1094 179.391 19.7812 179.391C20.8802 179.391 21.7344 179.753 22.3438 180.477C22.9531 181.201 23.2578 182.237 23.2578 183.586V184.188H17.5312C17.5521 185.021 17.7943 185.695 18.2578 186.211C18.7266 186.721 19.3203 186.977 20.0391 186.977C20.5495 186.977 20.9818 186.872 21.3359 186.664C21.6901 186.456 22 186.18 22.2656 185.836L23.1484 186.523C22.4401 187.612 21.3776 188.156 19.9609 188.156ZM19.7812 180.578C19.1979 180.578 18.7083 180.792 18.3125 181.219C17.9167 181.641 17.6719 182.234 17.5781 183H21.8125V182.891C21.7708 182.156 21.5729 181.589 21.2188 181.188C20.8646 180.781 20.3854 180.578 19.7812 180.578ZM28.3281 186.977C28.8438 186.977 29.2943 186.82 29.6797 186.508C30.0651 186.195 30.2786 185.805 30.3203 185.336H31.6875C31.6615 185.82 31.4948 186.281 31.1875 186.719C30.8802 187.156 30.4688 187.505 29.9531 187.766C29.4427 188.026 28.901 188.156 28.3281 188.156C27.1771 188.156 26.2604 187.773 25.5781 187.008C24.901 186.237 24.5625 185.185 24.5625 183.852V183.609C24.5625 182.786 24.7135 182.055 25.0156 181.414C25.3177 180.773 25.75 180.276 26.3125 179.922C26.8802 179.568 27.5495 179.391 28.3203 179.391C29.2682 179.391 30.0547 179.674 30.6797 180.242C31.3099 180.81 31.6458 181.547 31.6875 182.453H30.3203C30.2786 181.906 30.0703 181.458 29.6953 181.109C29.3255 180.755 28.8672 180.578 28.3203 180.578C27.5859 180.578 27.0156 180.844 26.6094 181.375C26.2083 181.901 26.0078 182.664 26.0078 183.664V183.938C26.0078 184.911 26.2083 185.661 26.6094 186.188C27.0104 186.714 27.5833 186.977 28.3281 186.977ZM34.8828 188H33.4375V179.547H34.8828V188ZM33.3203 177.305C33.3203 177.07 33.3906 176.872 33.5312 176.711C33.6771 176.549 33.8906 176.469 34.1719 176.469C34.4531 176.469 34.6667 176.549 34.8125 176.711C34.9583 176.872 35.0312 177.07 35.0312 177.305C35.0312 177.539 34.9583 177.734 34.8125 177.891C34.6667 178.047 34.4531 178.125 34.1719 178.125C33.8906 178.125 33.6771 178.047 33.5312 177.891C33.3906 177.734 33.3203 177.539 33.3203 177.305ZM44.3438 183.867C44.3438 185.154 44.0495 186.19 43.4609 186.977C42.8724 187.763 42.0755 188.156 41.0703 188.156C40.0443 188.156 39.237 187.831 38.6484 187.18V191.25H37.2031V179.547H38.5234L38.5938 180.484C39.1823 179.755 40 179.391 41.0469 179.391C42.0625 179.391 42.8646 179.773 43.4531 180.539C44.0469 181.305 44.3438 182.37 44.3438 183.734V183.867ZM42.8984 183.703C42.8984 182.75 42.6953 181.997 42.2891 181.445C41.8828 180.893 41.3255 180.617 40.6172 180.617C39.7422 180.617 39.0859 181.005 38.6484 181.781V185.82C39.0807 186.591 39.7422 186.977 40.6328 186.977C41.3255 186.977 41.875 186.703 42.2812 186.156C42.6927 185.604 42.8984 184.786 42.8984 183.703ZM47.7578 188H46.3125V179.547H47.7578V188ZM46.1953 177.305C46.1953 177.07 46.2656 176.872 46.4062 176.711C46.5521 176.549 46.7656 176.469 47.0469 176.469C47.3281 176.469 47.5417 176.549 47.6875 176.711C47.8333 176.872 47.9062 177.07 47.9062 177.305C47.9062 177.539 47.8333 177.734 47.6875 177.891C47.5417 178.047 47.3281 178.125 47.0469 178.125C46.7656 178.125 46.5521 178.047 46.4062 177.891C46.2656 177.734 46.1953 177.539 46.1953 177.305ZM52.0391 177.5V179.547H53.6172V180.664H52.0391V185.906C52.0391 186.245 52.1094 186.5 52.25 186.672C52.3906 186.839 52.6302 186.922 52.9688 186.922C53.1354 186.922 53.3646 186.891 53.6562 186.828V188C53.276 188.104 52.9062 188.156 52.5469 188.156C51.901 188.156 51.4141 187.961 51.0859 187.57C50.7578 187.18 50.5938 186.625 50.5938 185.906V180.664H49.0547V179.547H50.5938V177.5H52.0391ZM60.5312 188C60.4479 187.833 60.3802 187.536 60.3281 187.109C59.6562 187.807 58.8542 188.156 57.9219 188.156C57.0885 188.156 56.4036 187.922 55.8672 187.453C55.3359 186.979 55.0703 186.38 55.0703 185.656C55.0703 184.776 55.4036 184.094 56.0703 183.609C56.7422 183.12 57.6849 182.875 58.8984 182.875H60.3047V182.211C60.3047 181.706 60.1536 181.305 59.8516 181.008C59.5495 180.706 59.1042 180.555 58.5156 180.555C58 180.555 57.5677 180.685 57.2188 180.945C56.8698 181.206 56.6953 181.521 56.6953 181.891H55.2422C55.2422 181.469 55.3906 181.062 55.6875 180.672C55.9896 180.276 56.3958 179.964 56.9062 179.734C57.4219 179.505 57.987 179.391 58.6016 179.391C59.5755 179.391 60.3385 179.635 60.8906 180.125C61.4427 180.609 61.7292 181.279 61.75 182.133V186.023C61.75 186.799 61.849 187.417 62.0469 187.875V188H60.5312ZM58.1328 186.898C58.5859 186.898 59.0156 186.781 59.4219 186.547C59.8281 186.312 60.1224 186.008 60.3047 185.633V183.898H59.1719C57.401 183.898 56.5156 184.417 56.5156 185.453C56.5156 185.906 56.6667 186.26 56.9688 186.516C57.2708 186.771 57.6589 186.898 58.1328 186.898ZM65.9766 177.5V179.547H67.5547V180.664H65.9766V185.906C65.9766 186.245 66.0469 186.5 66.1875 186.672C66.3281 186.839 66.5677 186.922 66.9062 186.922C67.0729 186.922 67.3021 186.891 67.5938 186.828V188C67.2135 188.104 66.8438 188.156 66.4844 188.156C65.8385 188.156 65.3516 187.961 65.0234 187.57C64.6953 187.18 64.5312 186.625 64.5312 185.906V180.664H62.9922V179.547H64.5312V177.5H65.9766ZM70.8203 188H69.375V179.547H70.8203V188ZM69.2578 177.305C69.2578 177.07 69.3281 176.872 69.4688 176.711C69.6146 176.549 69.8281 176.469 70.1094 176.469C70.3906 176.469 70.6042 176.549 70.75 176.711C70.8958 176.872 70.9688 177.07 70.9688 177.305C70.9688 177.539 70.8958 177.734 70.75 177.891C70.6042 178.047 70.3906 178.125 70.1094 178.125C69.8281 178.125 69.6146 178.047 69.4688 177.891C69.3281 177.734 69.2578 177.539 69.2578 177.305ZM72.7578 183.695C72.7578 182.867 72.9193 182.122 73.2422 181.461C73.5703 180.799 74.0234 180.289 74.6016 179.93C75.1849 179.57 75.849 179.391 76.5938 179.391C77.7448 179.391 78.6745 179.789 79.3828 180.586C80.0964 181.383 80.4531 182.443 80.4531 183.766V183.867C80.4531 184.69 80.2943 185.43 79.9766 186.086C79.6641 186.737 79.2135 187.245 78.625 187.609C78.0417 187.974 77.3698 188.156 76.6094 188.156C75.4635 188.156 74.5339 187.758 73.8203 186.961C73.112 186.164 72.7578 185.109 72.7578 183.797V183.695ZM74.2109 183.867C74.2109 184.805 74.4271 185.557 74.8594 186.125C75.2969 186.693 75.8802 186.977 76.6094 186.977C77.3438 186.977 77.9271 186.69 78.3594 186.117C78.7917 185.539 79.0078 184.732 79.0078 183.695C79.0078 182.768 78.7865 182.018 78.3438 181.445C77.9062 180.867 77.3229 180.578 76.5938 180.578C75.8802 180.578 75.3047 180.862 74.8672 181.43C74.4297 181.997 74.2109 182.81 74.2109 183.867ZM83.6328 179.547L83.6797 180.609C84.3255 179.797 85.1693 179.391 86.2109 179.391C87.9974 179.391 88.8984 180.398 88.9141 182.414V188H87.4688V182.406C87.4635 181.797 87.3229 181.346 87.0469 181.055C86.776 180.763 86.3516 180.617 85.7734 180.617C85.3047 180.617 84.8932 180.742 84.5391 180.992C84.1849 181.242 83.9089 181.57 83.7109 181.977V188H82.2656V179.547H83.6328Z" fill="white"/>
<path d="M322.18 188H314.727V186.961L318.664 182.586C319.247 181.924 319.648 181.388 319.867 180.977C320.091 180.56 320.203 180.13 320.203 179.688C320.203 179.094 320.023 178.607 319.664 178.227C319.305 177.846 318.826 177.656 318.227 177.656C317.508 177.656 316.948 177.862 316.547 178.273C316.151 178.68 315.953 179.247 315.953 179.977H314.508C314.508 178.93 314.844 178.083 315.516 177.438C316.193 176.792 317.096 176.469 318.227 176.469C319.284 176.469 320.12 176.747 320.734 177.305C321.349 177.857 321.656 178.594 321.656 179.516C321.656 180.635 320.943 181.969 319.516 183.516L316.469 186.82H322.18V188ZM323.891 187.242C323.891 186.992 323.964 186.784 324.109 186.617C324.26 186.451 324.484 186.367 324.781 186.367C325.078 186.367 325.302 186.451 325.453 186.617C325.609 186.784 325.688 186.992 325.688 187.242C325.688 187.482 325.609 187.682 325.453 187.844C325.302 188.005 325.078 188.086 324.781 188.086C324.484 188.086 324.26 188.005 324.109 187.844C323.964 187.682 323.891 187.482 323.891 187.242ZM328.594 182.297L329.172 176.625H335V177.961H330.398L330.055 181.062C330.612 180.734 331.245 180.57 331.953 180.57C332.99 180.57 333.812 180.914 334.422 181.602C335.031 182.284 335.336 183.208 335.336 184.375C335.336 185.547 335.018 186.471 334.383 187.148C333.753 187.82 332.87 188.156 331.734 188.156C330.729 188.156 329.909 187.878 329.273 187.32C328.638 186.763 328.276 185.992 328.188 185.008H329.555C329.643 185.659 329.875 186.151 330.25 186.484C330.625 186.812 331.12 186.977 331.734 186.977C332.406 186.977 332.932 186.747 333.312 186.289C333.698 185.831 333.891 185.198 333.891 184.391C333.891 183.63 333.682 183.021 333.266 182.562C332.854 182.099 332.305 181.867 331.617 181.867C330.987 181.867 330.492 182.005 330.133 182.281L329.75 182.594L328.594 182.297ZM342.391 179.547L342.43 180.484C343.049 179.755 343.885 179.391 344.938 179.391C346.12 179.391 346.924 179.844 347.352 180.75C347.633 180.344 347.997 180.016 348.445 179.766C348.898 179.516 349.432 179.391 350.047 179.391C351.901 179.391 352.844 180.372 352.875 182.336V188H351.43V182.422C351.43 181.818 351.292 181.367 351.016 181.07C350.74 180.768 350.276 180.617 349.625 180.617C349.089 180.617 348.643 180.779 348.289 181.102C347.935 181.419 347.729 181.849 347.672 182.391V188H346.219V182.461C346.219 181.232 345.617 180.617 344.414 180.617C343.466 180.617 342.818 181.021 342.469 181.828V188H341.023V179.547H342.391ZM356.422 179.547L356.461 180.484C357.081 179.755 357.917 179.391 358.969 179.391C360.151 179.391 360.956 179.844 361.383 180.75C361.664 180.344 362.029 180.016 362.477 179.766C362.93 179.516 363.464 179.391 364.078 179.391C365.932 179.391 366.875 180.372 366.906 182.336V188H365.461V182.422C365.461 181.818 365.323 181.367 365.047 181.07C364.771 180.768 364.307 180.617 363.656 180.617C363.12 180.617 362.674 180.779 362.32 181.102C361.966 181.419 361.76 181.849 361.703 182.391V188H360.25V182.461C360.25 181.232 359.648 180.617 358.445 180.617C357.497 180.617 356.849 181.021 356.5 181.828V188H355.055V179.547H356.422Z" fill="white"/>
<path d="M388 174.001C391.168 174.001 392.966 176.098 393.227 178.631L393.307 178.631C395.346 178.631 396.999 180.28 396.999 182.313C396.999 184.347 395.346 185.996 393.307 185.996L392.724 185.996L392.722 186H392.458C392.438 186.057 392.41 186.113 392.375 186.166L391.375 187.666C391.145 188.011 390.68 188.104 390.335 187.875C389.99 187.645 389.897 187.179 390.127 186.835L390.686 185.996H388.856L388.854 186H388.457C388.437 186.057 388.409 186.113 388.374 186.166L387.375 187.666C387.145 188.011 386.679 188.104 386.334 187.874C385.99 187.645 385.897 187.179 386.126 186.834L386.685 185.996H384.987L384.985 186H384.458C384.437 186.057 384.41 186.113 384.374 186.166L383.375 187.666C383.145 188.011 382.679 188.104 382.335 187.875C381.99 187.645 381.897 187.179 382.126 186.835L382.685 185.996C380.65 185.992 379 184.345 379 182.313C379 180.28 380.653 178.631 382.693 178.631L382.773 178.631C383.035 176.081 384.831 174.001 388 174.001ZM388 175.498C385.929 175.498 384.123 177.132 384.123 179.388C384.123 179.745 383.804 180.025 383.439 180.025L382.749 180.025C381.488 180.025 380.465 181.027 380.465 182.262C380.465 183.497 381.488 184.498 382.749 184.498H393.251C394.512 184.498 395.535 183.497 395.535 182.262C395.535 181.027 394.512 180.025 393.251 180.025L392.561 180.025C392.196 180.025 391.877 179.745 391.877 179.388C391.877 177.103 390.071 175.498 388 175.498ZM383.126 189.834C382.896 190.179 382.99 190.645 383.334 190.874C383.679 191.104 384.145 191.011 384.374 190.666L385.374 189.166C385.604 188.821 385.51 188.356 385.166 188.126C384.821 187.896 384.355 187.99 384.126 188.334L383.126 189.834ZM387.334 190.874C386.99 190.644 386.896 190.179 387.126 189.834L388.126 188.334C388.355 187.989 388.821 187.896 389.166 188.126C389.51 188.355 389.604 188.821 389.374 189.166L388.374 190.666C388.145 191.01 387.679 191.104 387.334 190.874Z" fill="white"/>
<rect y="211" width="400" height="1" fill="white"/>
</svg>
