<svg width="882" height="56" viewBox="0 0 882 56" fill="none" xmlns="http://www.w3.org/2000/svg">
<path d="M0 28C0 12.536 12.536 0 28 0H74C89.464 0 102 12.536 102 28C102 43.464 89.464 56 74 56H28C12.536 56 0 43.464 0 28Z" fill="white"/>
<path d="M40.0322 24.127H36.833V33H35.5273V24.127H32.335V23.0469H40.0322V24.127ZM40.292 29.2334C40.292 28.5088 40.4333 27.8571 40.7158 27.2783C41.0029 26.6995 41.3994 26.2529 41.9053 25.9385C42.4157 25.624 42.9967 25.4668 43.6484 25.4668C44.6556 25.4668 45.4691 25.8154 46.0889 26.5127C46.7132 27.21 47.0254 28.1374 47.0254 29.2949V29.3838C47.0254 30.1038 46.8864 30.751 46.6084 31.3252C46.335 31.8949 45.9408 32.3392 45.4258 32.6582C44.9154 32.9772 44.3275 33.1367 43.6621 33.1367C42.6595 33.1367 41.846 32.7881 41.2217 32.0908C40.6019 31.3936 40.292 30.4707 40.292 29.3223V29.2334ZM41.5635 29.3838C41.5635 30.2041 41.7526 30.8626 42.1309 31.3594C42.5137 31.8561 43.0241 32.1045 43.6621 32.1045C44.3047 32.1045 44.8151 31.8538 45.1934 31.3525C45.5716 30.8467 45.7607 30.1403 45.7607 29.2334C45.7607 28.4222 45.5671 27.766 45.1797 27.2646C44.7969 26.7588 44.2865 26.5059 43.6484 26.5059C43.0241 26.5059 42.5205 26.7542 42.1377 27.251C41.7549 27.7477 41.5635 28.4587 41.5635 29.3838ZM48.3037 29.2402C48.3037 28.1055 48.5726 27.194 49.1104 26.5059C49.6481 25.8132 50.3522 25.4668 51.2227 25.4668C52.0885 25.4668 52.7744 25.763 53.2803 26.3555V22.5H54.5449V33H53.3828L53.3213 32.207C52.8154 32.8268 52.1113 33.1367 51.209 33.1367C50.3522 33.1367 49.6527 32.7858 49.1104 32.084C48.5726 31.3822 48.3037 30.4661 48.3037 29.3359V29.2402ZM49.5684 29.3838C49.5684 30.2223 49.7415 30.8786 50.0879 31.3525C50.4342 31.8265 50.9128 32.0635 51.5234 32.0635C52.3255 32.0635 52.9111 31.7035 53.2803 30.9834V27.5859C52.902 26.8887 52.321 26.54 51.5371 26.54C50.9173 26.54 50.4342 26.7793 50.0879 27.2578C49.7415 27.7363 49.5684 28.445 49.5684 29.3838ZM61.0801 33C61.0072 32.8542 60.9479 32.5944 60.9023 32.2207C60.3145 32.8314 59.6126 33.1367 58.7969 33.1367C58.0677 33.1367 57.4684 32.9316 56.999 32.5215C56.5342 32.1068 56.3018 31.5827 56.3018 30.9492C56.3018 30.179 56.5934 29.582 57.1768 29.1582C57.7646 28.7298 58.5895 28.5156 59.6514 28.5156H60.8818V27.9346C60.8818 27.4925 60.7497 27.1416 60.4854 26.8818C60.221 26.6175 59.8314 26.4854 59.3164 26.4854C58.8652 26.4854 58.487 26.5993 58.1816 26.8271C57.8763 27.055 57.7236 27.3307 57.7236 27.6543H56.4521C56.4521 27.2852 56.582 26.9297 56.8418 26.5879C57.1061 26.2415 57.4616 25.9681 57.9082 25.7676C58.3594 25.5671 58.8538 25.4668 59.3916 25.4668C60.2438 25.4668 60.9115 25.681 61.3945 26.1094C61.8776 26.5332 62.1283 27.1188 62.1465 27.8662V31.2705C62.1465 31.9495 62.2331 32.4896 62.4062 32.8906V33H61.0801ZM58.9814 32.0361C59.3779 32.0361 59.7539 31.9336 60.1094 31.7285C60.4648 31.5234 60.7223 31.2568 60.8818 30.9287V29.4111H59.8906C58.3411 29.4111 57.5664 29.8646 57.5664 30.7715C57.5664 31.168 57.6986 31.4779 57.9629 31.7012C58.2272 31.9245 58.5667 32.0361 58.9814 32.0361ZM66.4395 31.1475L68.1621 25.6035H69.5156L66.542 34.1416C66.0817 35.3721 65.3503 35.9873 64.3477 35.9873L64.1084 35.9668L63.6367 35.8779V34.8525L63.9785 34.8799C64.4069 34.8799 64.7396 34.7933 64.9766 34.6201C65.2181 34.4469 65.4163 34.1302 65.5713 33.6699L65.8516 32.918L63.2129 25.6035H64.5938L66.4395 31.1475Z" fill="black"/>
<path d="M158.032 24.127H154.833V33H153.527V24.127H150.335V23.0469H158.032V24.127ZM160.575 26.499C161.136 25.8109 161.865 25.4668 162.763 25.4668C164.326 25.4668 165.114 26.3486 165.128 28.1123V33H163.863V28.1055C163.859 27.5723 163.736 27.1781 163.494 26.9229C163.257 26.6676 162.886 26.54 162.38 26.54C161.97 26.54 161.61 26.6494 161.3 26.8682C160.99 27.0869 160.748 27.374 160.575 27.7295V33H159.311V22.5H160.575V26.499ZM171.588 32.2686C171.096 32.8473 170.373 33.1367 169.421 33.1367C168.632 33.1367 168.031 32.9089 167.616 32.4531C167.206 31.9928 166.999 31.3138 166.994 30.416V25.6035H168.259V30.3818C168.259 31.5029 168.715 32.0635 169.626 32.0635C170.592 32.0635 171.235 31.7035 171.554 30.9834V25.6035H172.818V33H171.615L171.588 32.2686ZM178.321 26.7383C178.13 26.7064 177.923 26.6904 177.699 26.6904C176.87 26.6904 176.307 27.0436 176.011 27.75V33H174.746V25.6035H175.977L175.997 26.458C176.412 25.7972 177 25.4668 177.761 25.4668C178.007 25.4668 178.194 25.4987 178.321 25.5625V26.7383ZM183.797 31.0381C183.797 30.6963 183.667 30.432 183.407 30.2451C183.152 30.0537 182.703 29.8896 182.061 29.7529C181.423 29.6162 180.914 29.4521 180.536 29.2607C180.162 29.0693 179.884 28.8415 179.702 28.5771C179.524 28.3128 179.436 27.9984 179.436 27.6338C179.436 27.0277 179.691 26.515 180.201 26.0957C180.716 25.6764 181.372 25.4668 182.17 25.4668C183.008 25.4668 183.688 25.6833 184.207 26.1162C184.731 26.5492 184.993 27.1029 184.993 27.7773H183.722C183.722 27.431 183.574 27.1325 183.277 26.8818C182.986 26.6312 182.617 26.5059 182.17 26.5059C181.71 26.5059 181.35 26.6061 181.09 26.8066C180.83 27.0072 180.7 27.2692 180.7 27.5928C180.7 27.8981 180.821 28.1283 181.062 28.2832C181.304 28.4382 181.739 28.5863 182.368 28.7275C183.002 28.8688 183.514 29.0374 183.906 29.2334C184.298 29.4294 184.588 29.6663 184.774 29.9443C184.966 30.2178 185.062 30.5527 185.062 30.9492C185.062 31.61 184.797 32.141 184.269 32.542C183.74 32.9385 183.054 33.1367 182.211 33.1367C181.618 33.1367 181.094 33.0319 180.639 32.8223C180.183 32.6126 179.825 32.321 179.565 31.9473C179.31 31.569 179.183 31.1611 179.183 30.7236H180.447C180.47 31.1475 180.639 31.4847 180.953 31.7354C181.272 31.9814 181.691 32.1045 182.211 32.1045C182.689 32.1045 183.072 32.0088 183.359 31.8174C183.651 31.6214 183.797 31.3617 183.797 31.0381ZM186.401 29.2402C186.401 28.1055 186.67 27.194 187.208 26.5059C187.746 25.8132 188.45 25.4668 189.32 25.4668C190.186 25.4668 190.872 25.763 191.378 26.3555V22.5H192.643V33H191.48L191.419 32.207C190.913 32.8268 190.209 33.1367 189.307 33.1367C188.45 33.1367 187.75 32.7858 187.208 32.084C186.67 31.3822 186.401 30.4661 186.401 29.3359V29.2402ZM187.666 29.3838C187.666 30.2223 187.839 30.8786 188.186 31.3525C188.532 31.8265 189.01 32.0635 189.621 32.0635C190.423 32.0635 191.009 31.7035 191.378 30.9834V27.5859C191 26.8887 190.419 26.54 189.635 26.54C189.015 26.54 188.532 26.7793 188.186 27.2578C187.839 27.7363 187.666 28.445 187.666 29.3838ZM199.178 33C199.105 32.8542 199.046 32.5944 199 32.2207C198.412 32.8314 197.71 33.1367 196.895 33.1367C196.165 33.1367 195.566 32.9316 195.097 32.5215C194.632 32.1068 194.399 31.5827 194.399 30.9492C194.399 30.179 194.691 29.582 195.274 29.1582C195.862 28.7298 196.687 28.5156 197.749 28.5156H198.979V27.9346C198.979 27.4925 198.847 27.1416 198.583 26.8818C198.319 26.6175 197.929 26.4854 197.414 26.4854C196.963 26.4854 196.585 26.5993 196.279 26.8271C195.974 27.055 195.821 27.3307 195.821 27.6543H194.55C194.55 27.2852 194.68 26.9297 194.939 26.5879C195.204 26.2415 195.559 25.9681 196.006 25.7676C196.457 25.5671 196.951 25.4668 197.489 25.4668C198.341 25.4668 199.009 25.681 199.492 26.1094C199.975 26.5332 200.226 27.1188 200.244 27.8662V31.2705C200.244 31.9495 200.331 32.4896 200.504 32.8906V33H199.178ZM197.079 32.0361C197.476 32.0361 197.852 31.9336 198.207 31.7285C198.562 31.5234 198.82 31.2568 198.979 30.9287V29.4111H197.988C196.439 29.4111 195.664 29.8646 195.664 30.7715C195.664 31.168 195.796 31.4779 196.061 31.7012C196.325 31.9245 196.664 32.0361 197.079 32.0361ZM204.537 31.1475L206.26 25.6035H207.613L204.64 34.1416C204.179 35.3721 203.448 35.9873 202.445 35.9873L202.206 35.9668L201.734 35.8779V34.8525L202.076 34.8799C202.505 34.8799 202.837 34.7933 203.074 34.6201C203.316 34.4469 203.514 34.1302 203.669 33.6699L203.949 32.918L201.311 25.6035H202.691L204.537 31.1475Z" fill="white"/>
<path d="M294.645 28.6045H290.468V33H289.155V23.0469H295.321V24.127H290.468V27.5312H294.645V28.6045ZM300.093 26.7383C299.901 26.7064 299.694 26.6904 299.471 26.6904C298.641 26.6904 298.078 27.0436 297.782 27.75V33H296.518V25.6035H297.748L297.769 26.458C298.183 25.7972 298.771 25.4668 299.532 25.4668C299.778 25.4668 299.965 25.4987 300.093 25.5625V26.7383ZM302.636 33H301.371V25.6035H302.636V33ZM301.269 23.6416C301.269 23.4365 301.33 23.2633 301.453 23.1221C301.581 22.9808 301.768 22.9102 302.014 22.9102C302.26 22.9102 302.447 22.9808 302.574 23.1221C302.702 23.2633 302.766 23.4365 302.766 23.6416C302.766 23.8467 302.702 24.0176 302.574 24.1543C302.447 24.291 302.26 24.3594 302.014 24.3594C301.768 24.3594 301.581 24.291 301.453 24.1543C301.33 24.0176 301.269 23.8467 301.269 23.6416ZM304.358 29.2402C304.358 28.1055 304.627 27.194 305.165 26.5059C305.703 25.8132 306.407 25.4668 307.277 25.4668C308.143 25.4668 308.829 25.763 309.335 26.3555V22.5H310.6V33H309.438L309.376 32.207C308.87 32.8268 308.166 33.1367 307.264 33.1367C306.407 33.1367 305.707 32.7858 305.165 32.084C304.627 31.3822 304.358 30.4661 304.358 29.3359V29.2402ZM305.623 29.3838C305.623 30.2223 305.796 30.8786 306.143 31.3525C306.489 31.8265 306.967 32.0635 307.578 32.0635C308.38 32.0635 308.966 31.7035 309.335 30.9834V27.5859C308.957 26.8887 308.376 26.54 307.592 26.54C306.972 26.54 306.489 26.7793 306.143 27.2578C305.796 27.7363 305.623 28.445 305.623 29.3838ZM317.135 33C317.062 32.8542 317.003 32.5944 316.957 32.2207C316.369 32.8314 315.667 33.1367 314.852 33.1367C314.122 33.1367 313.523 32.9316 313.054 32.5215C312.589 32.1068 312.356 31.5827 312.356 30.9492C312.356 30.179 312.648 29.582 313.231 29.1582C313.819 28.7298 314.644 28.5156 315.706 28.5156H316.937V27.9346C316.937 27.4925 316.804 27.1416 316.54 26.8818C316.276 26.6175 315.886 26.4854 315.371 26.4854C314.92 26.4854 314.542 26.5993 314.236 26.8271C313.931 27.055 313.778 27.3307 313.778 27.6543H312.507C312.507 27.2852 312.637 26.9297 312.896 26.5879C313.161 26.2415 313.516 25.9681 313.963 25.7676C314.414 25.5671 314.909 25.4668 315.446 25.4668C316.299 25.4668 316.966 25.681 317.449 26.1094C317.932 26.5332 318.183 27.1188 318.201 27.8662V31.2705C318.201 31.9495 318.288 32.4896 318.461 32.8906V33H317.135ZM315.036 32.0361C315.433 32.0361 315.809 31.9336 316.164 31.7285C316.52 31.5234 316.777 31.2568 316.937 30.9287V29.4111H315.945C314.396 29.4111 313.621 29.8646 313.621 30.7715C313.621 31.168 313.753 31.4779 314.018 31.7012C314.282 31.9245 314.621 32.0361 315.036 32.0361ZM322.494 31.1475L324.217 25.6035H325.57L322.597 34.1416C322.136 35.3721 321.405 35.9873 320.402 35.9873L320.163 35.9668L319.691 35.8779V34.8525L320.033 34.8799C320.462 34.8799 320.794 34.7933 321.031 34.6201C321.273 34.4469 321.471 34.1302 321.626 33.6699L321.906 32.918L319.268 25.6035H320.648L322.494 31.1475Z" fill="white"/>
<path d="M410.088 28.5635C408.962 28.2399 408.142 27.8434 407.627 27.374C407.117 26.9001 406.861 26.3167 406.861 25.624C406.861 24.8402 407.174 24.193 407.798 23.6826C408.427 23.1676 409.243 22.9102 410.245 22.9102C410.929 22.9102 411.537 23.0423 412.07 23.3066C412.608 23.571 413.023 23.9355 413.314 24.4004C413.611 24.8652 413.759 25.3734 413.759 25.9248H412.439C412.439 25.3232 412.248 24.8516 411.865 24.5098C411.482 24.1634 410.942 23.9902 410.245 23.9902C409.598 23.9902 409.092 24.1338 408.728 24.4209C408.368 24.7035 408.188 25.0977 408.188 25.6035C408.188 26.0091 408.358 26.3532 408.7 26.6357C409.047 26.9137 409.632 27.1689 410.457 27.4014C411.286 27.6338 411.934 27.8913 412.398 28.1738C412.868 28.4518 413.214 28.7777 413.438 29.1514C413.665 29.5251 413.779 29.9648 413.779 30.4707C413.779 31.2773 413.465 31.9245 412.836 32.4121C412.207 32.8952 411.366 33.1367 410.313 33.1367C409.63 33.1367 408.992 33.0068 408.399 32.7471C407.807 32.4827 407.349 32.1227 407.025 31.667C406.706 31.2113 406.547 30.694 406.547 30.1152H407.866C407.866 30.7168 408.087 31.193 408.529 31.5439C408.976 31.8903 409.571 32.0635 410.313 32.0635C411.006 32.0635 411.537 31.9222 411.906 31.6396C412.275 31.3571 412.46 30.972 412.46 30.4844C412.46 29.9967 412.289 29.6208 411.947 29.3564C411.605 29.0876 410.986 28.8232 410.088 28.5635ZM419.836 33C419.763 32.8542 419.704 32.5944 419.658 32.2207C419.07 32.8314 418.368 33.1367 417.553 33.1367C416.824 33.1367 416.224 32.9316 415.755 32.5215C415.29 32.1068 415.058 31.5827 415.058 30.9492C415.058 30.179 415.349 29.582 415.933 29.1582C416.521 28.7298 417.345 28.5156 418.407 28.5156H419.638V27.9346C419.638 27.4925 419.506 27.1416 419.241 26.8818C418.977 26.6175 418.587 26.4854 418.072 26.4854C417.621 26.4854 417.243 26.5993 416.938 26.8271C416.632 27.055 416.479 27.3307 416.479 27.6543H415.208C415.208 27.2852 415.338 26.9297 415.598 26.5879C415.862 26.2415 416.217 25.9681 416.664 25.7676C417.115 25.5671 417.61 25.4668 418.147 25.4668C419 25.4668 419.667 25.681 420.15 26.1094C420.633 26.5332 420.884 27.1188 420.902 27.8662V31.2705C420.902 31.9495 420.989 32.4896 421.162 32.8906V33H419.836ZM417.737 32.0361C418.134 32.0361 418.51 31.9336 418.865 31.7285C419.221 31.5234 419.478 31.2568 419.638 30.9287V29.4111H418.646C417.097 29.4111 416.322 29.8646 416.322 30.7715C416.322 31.168 416.454 31.4779 416.719 31.7012C416.983 31.9245 417.323 32.0361 417.737 32.0361ZM424.601 23.8125V25.6035H425.981V26.5811H424.601V31.168C424.601 31.4642 424.662 31.6875 424.785 31.8379C424.908 31.9837 425.118 32.0566 425.414 32.0566C425.56 32.0566 425.76 32.0293 426.016 31.9746V33C425.683 33.0911 425.359 33.1367 425.045 33.1367C424.48 33.1367 424.054 32.9658 423.767 32.624C423.479 32.2822 423.336 31.7969 423.336 31.168V26.5811H421.989V25.6035H423.336V23.8125H424.601ZM432.031 32.2686C431.539 32.8473 430.817 33.1367 429.864 33.1367C429.076 33.1367 428.474 32.9089 428.06 32.4531C427.649 31.9928 427.442 31.3138 427.438 30.416V25.6035H428.702V30.3818C428.702 31.5029 429.158 32.0635 430.069 32.0635C431.035 32.0635 431.678 31.7035 431.997 30.9834V25.6035H433.262V33H432.059L432.031 32.2686ZM438.765 26.7383C438.573 26.7064 438.366 26.6904 438.143 26.6904C437.313 26.6904 436.75 27.0436 436.454 27.75V33H435.189V25.6035H436.42L436.44 26.458C436.855 25.7972 437.443 25.4668 438.204 25.4668C438.45 25.4668 438.637 25.4987 438.765 25.5625V26.7383ZM439.489 29.2402C439.489 28.1055 439.758 27.194 440.296 26.5059C440.834 25.8132 441.538 25.4668 442.408 25.4668C443.274 25.4668 443.96 25.763 444.466 26.3555V22.5H445.73V33H444.568L444.507 32.207C444.001 32.8268 443.297 33.1367 442.395 33.1367C441.538 33.1367 440.838 32.7858 440.296 32.084C439.758 31.3822 439.489 30.4661 439.489 29.3359V29.2402ZM440.754 29.3838C440.754 30.2223 440.927 30.8786 441.273 31.3525C441.62 31.8265 442.098 32.0635 442.709 32.0635C443.511 32.0635 444.097 31.7035 444.466 30.9834V27.5859C444.088 26.8887 443.507 26.54 442.723 26.54C442.103 26.54 441.62 26.7793 441.273 27.2578C440.927 27.7363 440.754 28.445 440.754 29.3838ZM452.266 33C452.193 32.8542 452.133 32.5944 452.088 32.2207C451.5 32.8314 450.798 33.1367 449.982 33.1367C449.253 33.1367 448.654 32.9316 448.185 32.5215C447.72 32.1068 447.487 31.5827 447.487 30.9492C447.487 30.179 447.779 29.582 448.362 29.1582C448.95 28.7298 449.775 28.5156 450.837 28.5156H452.067V27.9346C452.067 27.4925 451.935 27.1416 451.671 26.8818C451.407 26.6175 451.017 26.4854 450.502 26.4854C450.051 26.4854 449.673 26.5993 449.367 26.8271C449.062 27.055 448.909 27.3307 448.909 27.6543H447.638C447.638 27.2852 447.768 26.9297 448.027 26.5879C448.292 26.2415 448.647 25.9681 449.094 25.7676C449.545 25.5671 450.039 25.4668 450.577 25.4668C451.429 25.4668 452.097 25.681 452.58 26.1094C453.063 26.5332 453.314 27.1188 453.332 27.8662V31.2705C453.332 31.9495 453.419 32.4896 453.592 32.8906V33H452.266ZM450.167 32.0361C450.563 32.0361 450.939 31.9336 451.295 31.7285C451.65 31.5234 451.908 31.2568 452.067 30.9287V29.4111H451.076C449.527 29.4111 448.752 29.8646 448.752 30.7715C448.752 31.168 448.884 31.4779 449.148 31.7012C449.413 31.9245 449.752 32.0361 450.167 32.0361ZM457.625 31.1475L459.348 25.6035H460.701L457.728 34.1416C457.267 35.3721 456.536 35.9873 455.533 35.9873L455.294 35.9668L454.822 35.8779V34.8525L455.164 34.8799C455.592 34.8799 455.925 34.7933 456.162 34.6201C456.404 34.4469 456.602 34.1302 456.757 33.6699L457.037 32.918L454.398 25.6035H455.779L457.625 31.1475Z" fill="white"/>
<path d="M545.088 28.5635C543.962 28.2399 543.142 27.8434 542.627 27.374C542.117 26.9001 541.861 26.3167 541.861 25.624C541.861 24.8402 542.174 24.193 542.798 23.6826C543.427 23.1676 544.243 22.9102 545.245 22.9102C545.929 22.9102 546.537 23.0423 547.07 23.3066C547.608 23.571 548.023 23.9355 548.314 24.4004C548.611 24.8652 548.759 25.3734 548.759 25.9248H547.439C547.439 25.3232 547.248 24.8516 546.865 24.5098C546.482 24.1634 545.942 23.9902 545.245 23.9902C544.598 23.9902 544.092 24.1338 543.728 24.4209C543.368 24.7035 543.188 25.0977 543.188 25.6035C543.188 26.0091 543.358 26.3532 543.7 26.6357C544.047 26.9137 544.632 27.1689 545.457 27.4014C546.286 27.6338 546.934 27.8913 547.398 28.1738C547.868 28.4518 548.214 28.7777 548.438 29.1514C548.665 29.5251 548.779 29.9648 548.779 30.4707C548.779 31.2773 548.465 31.9245 547.836 32.4121C547.207 32.8952 546.366 33.1367 545.313 33.1367C544.63 33.1367 543.992 33.0068 543.399 32.7471C542.807 32.4827 542.349 32.1227 542.025 31.667C541.706 31.2113 541.547 30.694 541.547 30.1152H542.866C542.866 30.7168 543.087 31.193 543.529 31.5439C543.976 31.8903 544.571 32.0635 545.313 32.0635C546.006 32.0635 546.537 31.9222 546.906 31.6396C547.275 31.3571 547.46 30.972 547.46 30.4844C547.46 29.9967 547.289 29.6208 546.947 29.3564C546.605 29.0876 545.986 28.8232 545.088 28.5635ZM554.836 32.2686C554.344 32.8473 553.621 33.1367 552.669 33.1367C551.881 33.1367 551.279 32.9089 550.864 32.4531C550.454 31.9928 550.247 31.3138 550.242 30.416V25.6035H551.507V30.3818C551.507 31.5029 551.963 32.0635 552.874 32.0635C553.84 32.0635 554.483 31.7035 554.802 30.9834V25.6035H556.066V33H554.863L554.836 32.2686ZM559.19 25.6035L559.231 26.5332C559.797 25.8223 560.535 25.4668 561.446 25.4668C563.009 25.4668 563.798 26.3486 563.812 28.1123V33H562.547V28.1055C562.542 27.5723 562.419 27.1781 562.178 26.9229C561.941 26.6676 561.569 26.54 561.063 26.54C560.653 26.54 560.293 26.6494 559.983 26.8682C559.674 27.0869 559.432 27.374 559.259 27.7295V33H557.994V25.6035H559.19ZM565.411 29.2402C565.411 28.1055 565.68 27.194 566.218 26.5059C566.756 25.8132 567.46 25.4668 568.33 25.4668C569.196 25.4668 569.882 25.763 570.388 26.3555V22.5H571.652V33H570.49L570.429 32.207C569.923 32.8268 569.219 33.1367 568.316 33.1367C567.46 33.1367 566.76 32.7858 566.218 32.084C565.68 31.3822 565.411 30.4661 565.411 29.3359V29.2402ZM566.676 29.3838C566.676 30.2223 566.849 30.8786 567.195 31.3525C567.542 31.8265 568.02 32.0635 568.631 32.0635C569.433 32.0635 570.019 31.7035 570.388 30.9834V27.5859C570.009 26.8887 569.428 26.54 568.645 26.54C568.025 26.54 567.542 26.7793 567.195 27.2578C566.849 27.7363 566.676 28.445 566.676 29.3838ZM578.188 33C578.115 32.8542 578.055 32.5944 578.01 32.2207C577.422 32.8314 576.72 33.1367 575.904 33.1367C575.175 33.1367 574.576 32.9316 574.106 32.5215C573.642 32.1068 573.409 31.5827 573.409 30.9492C573.409 30.179 573.701 29.582 574.284 29.1582C574.872 28.7298 575.697 28.5156 576.759 28.5156H577.989V27.9346C577.989 27.4925 577.857 27.1416 577.593 26.8818C577.328 26.6175 576.939 26.4854 576.424 26.4854C575.973 26.4854 575.594 26.5993 575.289 26.8271C574.984 27.055 574.831 27.3307 574.831 27.6543H573.56C573.56 27.2852 573.689 26.9297 573.949 26.5879C574.214 26.2415 574.569 25.9681 575.016 25.7676C575.467 25.5671 575.961 25.4668 576.499 25.4668C577.351 25.4668 578.019 25.681 578.502 26.1094C578.985 26.5332 579.236 27.1188 579.254 27.8662V31.2705C579.254 31.9495 579.34 32.4896 579.514 32.8906V33H578.188ZM576.089 32.0361C576.485 32.0361 576.861 31.9336 577.217 31.7285C577.572 31.5234 577.83 31.2568 577.989 30.9287V29.4111H576.998C575.449 29.4111 574.674 29.8646 574.674 30.7715C574.674 31.168 574.806 31.4779 575.07 31.7012C575.335 31.9245 575.674 32.0361 576.089 32.0361ZM583.547 31.1475L585.27 25.6035H586.623L583.649 34.1416C583.189 35.3721 582.458 35.9873 581.455 35.9873L581.216 35.9668L580.744 35.8779V34.8525L581.086 34.8799C581.514 34.8799 581.847 34.7933 582.084 34.6201C582.326 34.4469 582.524 34.1302 582.679 33.6699L582.959 32.918L580.32 25.6035H581.701L583.547 31.1475Z" fill="white"/>
<path d="M669.851 23.0469L673.104 31.168L676.358 23.0469H678.061V33H676.748V29.124L676.871 24.9404L673.604 33H672.599L669.338 24.9609L669.468 29.124V33H668.155V23.0469H669.851ZM679.845 29.2334C679.845 28.5088 679.986 27.8571 680.269 27.2783C680.556 26.6995 680.952 26.2529 681.458 25.9385C681.968 25.624 682.549 25.4668 683.201 25.4668C684.208 25.4668 685.022 25.8154 685.642 26.5127C686.266 27.21 686.578 28.1374 686.578 29.2949V29.3838C686.578 30.1038 686.439 30.751 686.161 31.3252C685.888 31.8949 685.493 32.3392 684.979 32.6582C684.468 32.9772 683.88 33.1367 683.215 33.1367C682.212 33.1367 681.399 32.7881 680.774 32.0908C680.155 31.3936 679.845 30.4707 679.845 29.3223V29.2334ZM681.116 29.3838C681.116 30.2041 681.305 30.8626 681.684 31.3594C682.066 31.8561 682.577 32.1045 683.215 32.1045C683.857 32.1045 684.368 31.8538 684.746 31.3525C685.124 30.8467 685.313 30.1403 685.313 29.2334C685.313 28.4222 685.12 27.766 684.732 27.2646C684.35 26.7588 683.839 26.5059 683.201 26.5059C682.577 26.5059 682.073 26.7542 681.69 27.251C681.308 27.7477 681.116 28.4587 681.116 29.3838ZM689.36 25.6035L689.401 26.5332C689.966 25.8223 690.705 25.4668 691.616 25.4668C693.179 25.4668 693.968 26.3486 693.981 28.1123V33H692.717V28.1055C692.712 27.5723 692.589 27.1781 692.348 26.9229C692.111 26.6676 691.739 26.54 691.233 26.54C690.823 26.54 690.463 26.6494 690.153 26.8682C689.843 27.0869 689.602 27.374 689.429 27.7295V33H688.164V25.6035H689.36ZM695.581 29.2402C695.581 28.1055 695.85 27.194 696.388 26.5059C696.925 25.8132 697.63 25.4668 698.5 25.4668C699.366 25.4668 700.052 25.763 700.558 26.3555V22.5H701.822V33H700.66L700.599 32.207C700.093 32.8268 699.389 33.1367 698.486 33.1367C697.63 33.1367 696.93 32.7858 696.388 32.084C695.85 31.3822 695.581 30.4661 695.581 29.3359V29.2402ZM696.846 29.3838C696.846 30.2223 697.019 30.8786 697.365 31.3525C697.712 31.8265 698.19 32.0635 698.801 32.0635C699.603 32.0635 700.188 31.7035 700.558 30.9834V27.5859C700.179 26.8887 699.598 26.54 698.814 26.54C698.195 26.54 697.712 26.7793 697.365 27.2578C697.019 27.7363 696.846 28.445 696.846 29.3838ZM708.357 33C708.285 32.8542 708.225 32.5944 708.18 32.2207C707.592 32.8314 706.89 33.1367 706.074 33.1367C705.345 33.1367 704.746 32.9316 704.276 32.5215C703.812 32.1068 703.579 31.5827 703.579 30.9492C703.579 30.179 703.871 29.582 704.454 29.1582C705.042 28.7298 705.867 28.5156 706.929 28.5156H708.159V27.9346C708.159 27.4925 708.027 27.1416 707.763 26.8818C707.498 26.6175 707.109 26.4854 706.594 26.4854C706.143 26.4854 705.764 26.5993 705.459 26.8271C705.154 27.055 705.001 27.3307 705.001 27.6543H703.729C703.729 27.2852 703.859 26.9297 704.119 26.5879C704.383 26.2415 704.739 25.9681 705.186 25.7676C705.637 25.5671 706.131 25.4668 706.669 25.4668C707.521 25.4668 708.189 25.681 708.672 26.1094C709.155 26.5332 709.406 27.1188 709.424 27.8662V31.2705C709.424 31.9495 709.51 32.4896 709.684 32.8906V33H708.357ZM706.259 32.0361C706.655 32.0361 707.031 31.9336 707.387 31.7285C707.742 31.5234 708 31.2568 708.159 30.9287V29.4111H707.168C705.618 29.4111 704.844 29.8646 704.844 30.7715C704.844 31.168 704.976 31.4779 705.24 31.7012C705.505 31.9245 705.844 32.0361 706.259 32.0361ZM713.717 31.1475L715.439 25.6035H716.793L713.819 34.1416C713.359 35.3721 712.628 35.9873 711.625 35.9873L711.386 35.9668L710.914 35.8779V34.8525L711.256 34.8799C711.684 34.8799 712.017 34.7933 712.254 34.6201C712.495 34.4469 712.694 34.1302 712.849 33.6699L713.129 32.918L710.49 25.6035H711.871L713.717 31.1475Z" fill="white"/>
<path d="M805.032 24.127H801.833V33H800.527V24.127H797.335V23.0469H805.032V24.127ZM810.221 32.2686C809.729 32.8473 809.006 33.1367 808.054 33.1367C807.265 33.1367 806.664 32.9089 806.249 32.4531C805.839 31.9928 805.632 31.3138 805.627 30.416V25.6035H806.892V30.3818C806.892 31.5029 807.347 32.0635 808.259 32.0635C809.225 32.0635 809.868 31.7035 810.187 30.9834V25.6035H811.451V33H810.248L810.221 32.2686ZM816.448 33.1367C815.446 33.1367 814.63 32.8086 814.001 32.1523C813.372 31.4915 813.058 30.6097 813.058 29.5068V29.2744C813.058 28.5407 813.197 27.8867 813.475 27.3125C813.757 26.7337 814.149 26.2826 814.65 25.959C815.156 25.6309 815.703 25.4668 816.291 25.4668C817.253 25.4668 818 25.7835 818.533 26.417C819.066 27.0505 819.333 27.9574 819.333 29.1377V29.6641H814.322C814.34 30.3932 814.552 30.9834 814.958 31.4346C815.368 31.8812 815.888 32.1045 816.517 32.1045C816.963 32.1045 817.341 32.0133 817.651 31.8311C817.961 31.6488 818.232 31.4072 818.465 31.1064L819.237 31.708C818.618 32.6605 817.688 33.1367 816.448 33.1367ZM816.291 26.5059C815.781 26.5059 815.352 26.6927 815.006 27.0664C814.66 27.4355 814.445 27.9551 814.363 28.625H818.068V28.5293C818.032 27.8867 817.859 27.39 817.549 27.0391C817.239 26.6836 816.82 26.5059 816.291 26.5059ZM825.109 31.0381C825.109 30.6963 824.979 30.432 824.72 30.2451C824.465 30.0537 824.016 29.8896 823.373 29.7529C822.735 29.6162 822.227 29.4521 821.849 29.2607C821.475 29.0693 821.197 28.8415 821.015 28.5771C820.837 28.3128 820.748 27.9984 820.748 27.6338C820.748 27.0277 821.003 26.515 821.514 26.0957C822.029 25.6764 822.685 25.4668 823.482 25.4668C824.321 25.4668 825 25.6833 825.52 26.1162C826.044 26.5492 826.306 27.1029 826.306 27.7773H825.034C825.034 27.431 824.886 27.1325 824.59 26.8818C824.298 26.6312 823.929 26.5059 823.482 26.5059C823.022 26.5059 822.662 26.6061 822.402 26.8066C822.143 27.0072 822.013 27.2692 822.013 27.5928C822.013 27.8981 822.133 28.1283 822.375 28.2832C822.617 28.4382 823.052 28.5863 823.681 28.7275C824.314 28.8688 824.827 29.0374 825.219 29.2334C825.611 29.4294 825.9 29.6663 826.087 29.9443C826.278 30.2178 826.374 30.5527 826.374 30.9492C826.374 31.61 826.11 32.141 825.581 32.542C825.052 32.9385 824.367 33.1367 823.523 33.1367C822.931 33.1367 822.407 33.0319 821.951 32.8223C821.495 32.6126 821.138 32.321 820.878 31.9473C820.623 31.569 820.495 31.1611 820.495 30.7236H821.76C821.783 31.1475 821.951 31.4847 822.266 31.7354C822.585 31.9814 823.004 32.1045 823.523 32.1045C824.002 32.1045 824.385 32.0088 824.672 31.8174C824.964 31.6214 825.109 31.3617 825.109 31.0381ZM827.714 29.2402C827.714 28.1055 827.983 27.194 828.521 26.5059C829.058 25.8132 829.762 25.4668 830.633 25.4668C831.499 25.4668 832.185 25.763 832.69 26.3555V22.5H833.955V33H832.793L832.731 32.207C832.226 32.8268 831.521 33.1367 830.619 33.1367C829.762 33.1367 829.063 32.7858 828.521 32.084C827.983 31.3822 827.714 30.4661 827.714 29.3359V29.2402ZM828.979 29.3838C828.979 30.2223 829.152 30.8786 829.498 31.3525C829.844 31.8265 830.323 32.0635 830.934 32.0635C831.736 32.0635 832.321 31.7035 832.69 30.9834V27.5859C832.312 26.8887 831.731 26.54 830.947 26.54C830.327 26.54 829.844 26.7793 829.498 27.2578C829.152 27.7363 828.979 28.445 828.979 29.3838ZM840.49 33C840.417 32.8542 840.358 32.5944 840.312 32.2207C839.725 32.8314 839.023 33.1367 838.207 33.1367C837.478 33.1367 836.879 32.9316 836.409 32.5215C835.944 32.1068 835.712 31.5827 835.712 30.9492C835.712 30.179 836.004 29.582 836.587 29.1582C837.175 28.7298 838 28.5156 839.062 28.5156H840.292V27.9346C840.292 27.4925 840.16 27.1416 839.896 26.8818C839.631 26.6175 839.242 26.4854 838.727 26.4854C838.275 26.4854 837.897 26.5993 837.592 26.8271C837.286 27.055 837.134 27.3307 837.134 27.6543H835.862C835.862 27.2852 835.992 26.9297 836.252 26.5879C836.516 26.2415 836.872 25.9681 837.318 25.7676C837.77 25.5671 838.264 25.4668 838.802 25.4668C839.654 25.4668 840.322 25.681 840.805 26.1094C841.288 26.5332 841.538 27.1188 841.557 27.8662V31.2705C841.557 31.9495 841.643 32.4896 841.816 32.8906V33H840.49ZM838.392 32.0361C838.788 32.0361 839.164 31.9336 839.52 31.7285C839.875 31.5234 840.132 31.2568 840.292 30.9287V29.4111H839.301C837.751 29.4111 836.977 29.8646 836.977 30.7715C836.977 31.168 837.109 31.4779 837.373 31.7012C837.637 31.9245 837.977 32.0361 838.392 32.0361ZM845.85 31.1475L847.572 25.6035H848.926L845.952 34.1416C845.492 35.3721 844.76 35.9873 843.758 35.9873L843.519 35.9668L843.047 35.8779V34.8525L843.389 34.8799C843.817 34.8799 844.15 34.7933 844.387 34.6201C844.628 34.4469 844.826 34.1302 844.981 33.6699L845.262 32.918L842.623 25.6035H844.004L845.85 31.1475Z" fill="white"/>
</svg>
