<svg width="473" height="250" viewBox="0 0 473 250" fill="none" xmlns="http://www.w3.org/2000/svg">
<path opacity="0.2" d="M163.463 246H5.08398V223.92L88.7559 130.951C101.152 116.895 109.674 105.495 114.322 96.752C119.081 87.8978 121.461 78.7669 121.461 69.3594C121.461 56.7422 117.643 46.3939 110.006 38.3145C102.369 30.235 92.1868 26.1953 79.459 26.1953C64.1855 26.1953 52.2878 30.5671 43.7656 39.3105C35.3542 47.9434 31.1484 60.0072 31.1484 75.502H0.435547C0.435547 53.2559 7.57422 35.2708 21.8516 21.5469C36.2396 7.82292 55.4421 0.960938 79.459 0.960938C101.926 0.960938 119.69 6.88216 132.75 18.7246C145.81 30.4564 152.34 46.1172 152.34 65.707C152.34 89.5026 137.177 117.836 106.852 150.707L42.1055 220.932H163.463V246ZM342.594 67.3672C342.594 79.431 339.384 90.1667 332.965 99.5742C326.656 108.982 318.079 116.342 307.232 121.654C319.85 127.077 329.811 134.991 337.115 145.395C344.531 155.798 348.238 167.585 348.238 180.756C348.238 201.674 341.155 218.331 326.988 230.727C312.932 243.122 294.394 249.32 271.373 249.32C248.131 249.32 229.482 243.122 215.426 230.727C201.48 218.22 194.508 201.563 194.508 180.756C194.508 167.696 198.049 155.909 205.133 145.395C212.327 134.88 222.232 126.911 234.85 121.488C224.114 116.176 215.647 108.816 209.449 99.4082C203.251 90.0007 200.152 79.3203 200.152 67.3672C200.152 47.0026 206.682 30.8438 219.742 18.8906C232.802 6.9375 250.012 0.960938 271.373 0.960938C292.623 0.960938 309.778 6.9375 322.838 18.8906C336.008 30.8438 342.594 47.0026 342.594 67.3672ZM317.525 180.092C317.525 166.589 313.209 155.577 304.576 147.055C296.054 138.533 284.876 134.271 271.041 134.271C257.206 134.271 246.083 138.477 237.672 146.889C229.371 155.3 225.221 166.368 225.221 180.092C225.221 193.816 229.26 204.607 237.34 212.465C245.53 220.323 256.874 224.252 271.373 224.252C285.761 224.252 297.05 220.323 305.24 212.465C313.43 204.496 317.525 193.705 317.525 180.092ZM271.373 26.1953C259.309 26.1953 249.514 29.9583 241.988 37.4844C234.573 44.8997 230.865 55.0267 230.865 67.8652C230.865 80.1504 234.518 90.1113 241.822 97.748C249.238 105.274 259.088 109.037 271.373 109.037C283.658 109.037 293.453 105.274 300.758 97.748C308.173 90.1113 311.881 80.1504 311.881 67.8652C311.881 55.5801 308.062 45.5638 300.426 37.8164C292.789 30.069 283.105 26.1953 271.373 26.1953ZM388.414 44.125C388.414 32.6146 392.509 22.543 400.699 13.9102C409 5.27734 419.016 0.960938 430.748 0.960938C442.258 0.960938 452.053 5.27734 460.133 13.9102C468.323 22.4323 472.418 32.5039 472.418 44.125C472.418 55.8568 468.323 65.873 460.133 74.1738C452.053 82.4746 442.258 86.625 430.748 86.625C419.127 86.625 409.166 82.4746 400.865 74.1738C392.564 65.873 388.414 55.8568 388.414 44.125ZM430.748 65.375C436.725 65.375 441.76 63.4382 445.855 59.5645C449.951 55.5801 451.998 50.4336 451.998 44.125C451.998 37.7057 449.951 32.4486 445.855 28.3535C441.76 24.1478 436.725 22.0449 430.748 22.0449C424.661 22.0449 419.514 24.2585 415.309 28.6855C411.214 33.002 409.166 38.1484 409.166 44.125C409.166 50.1016 411.214 55.1374 415.309 59.2324C419.514 63.3275 424.661 65.375 430.748 65.375Z" fill="white"/>
</svg>
