<svg width="56" height="56" viewBox="0 0 56 56" fill="none" xmlns="http://www.w3.org/2000/svg">
<circle cx="28" cy="28" r="28" fill="white"/>
<path d="M26 18.75C30.0041 18.75 33.25 21.9959 33.25 26C33.25 27.7319 32.6427 29.3219 31.6295 30.5688L36.5303 35.4697C36.8232 35.7626 36.8232 36.2374 36.5303 36.5303C36.2641 36.7966 35.8474 36.8208 35.5538 36.6029L35.4697 36.5303L30.5688 31.6295C29.3219 32.6427 27.7319 33.25 26 33.25C21.9959 33.25 18.75 30.0041 18.75 26C18.75 21.9959 21.9959 18.75 26 18.75ZM26 20.25C22.8244 20.25 20.25 22.8244 20.25 26C20.25 29.1756 22.8244 31.75 26 31.75C29.1756 31.75 31.75 29.1756 31.75 26C31.75 22.8244 29.1756 20.25 26 20.25Z" fill="black"/>
</svg>
